<?xml version="1.0" encoding="UTF-8" standalone="no"?>
<!-- Created with Inkscape (http://www.inkscape.org/) -->

<svg
   width="155mm"
   height="72.843742mm"
   viewBox="0 0 155 72.843742"
   version="1.1"
   id="svg1"
   xml:space="preserve"
   inkscape:version="1.3.2 (091e20e, 2023-11-25, custom)"
   sodipodi:docname="vit.svg"
   xmlns:inkscape="http://www.inkscape.org/namespaces/inkscape"
   xmlns:sodipodi="http://sodipodi.sourceforge.net/DTD/sodipodi-0.dtd"
   xmlns:xlink="http://www.w3.org/1999/xlink"
   xmlns="http://www.w3.org/2000/svg"
   xmlns:svg="http://www.w3.org/2000/svg"><sodipodi:namedview
     id="namedview1"
     pagecolor="#ffffff"
     bordercolor="#000000"
     borderopacity="0.25"
     inkscape:showpageshadow="2"
     inkscape:pageopacity="0.0"
     inkscape:pagecheckerboard="false"
     inkscape:deskcolor="#d1d1d1"
     inkscape:document-units="mm"
     showgrid="true"
     inkscape:zoom="2"
     inkscape:cx="-716.75"
     inkscape:cy="825.25"
     inkscape:window-width="3840"
     inkscape:window-height="2126"
     inkscape:window-x="2149"
     inkscape:window-y="832"
     inkscape:window-maximized="1"
     inkscape:current-layer="g2373"><inkscape:grid
       id="grid1"
       units="mm"
       originx="269.99999"
       originy="-199.99999"
       spacingx="1"
       spacingy="1"
       empcolor="#0099e5"
       empopacity="0.30196078"
       color="#0099e5"
       opacity="0.14902"
       empspacing="5"
       dotted="false"
       gridanglex="30"
       gridanglez="30"
       visible="true" /></sodipodi:namedview><defs
     id="defs1"><rect
       x="-732.79993"
       y="699.5"
       width="283.79993"
       height="46.956619"
       id="rect2303" /><linearGradient
       id="yGradient-7"
       x1="300"
       y1="50"
       x2="300"
       y2="200"
       gradientUnits="userSpaceOnUse"
       gradientTransform="matrix(0.30305721,0,0,0.23593107,120.45867,1.2140642)"><stop
         offset="0%"
         style="stop-color:#440154; stop-opacity:1"
         id="stop4-2" /><stop
         offset="50%"
         style="stop-color:#3b528b; stop-opacity:1"
         id="stop5-1" /><stop
         offset="1"
         style="stop-color:#fde725;stop-opacity:1;"
         id="stop6-4" /></linearGradient><linearGradient
       inkscape:collect="always"
       xlink:href="#yGradient-7"
       id="linearGradient2482"
       gradientUnits="userSpaceOnUse"
       gradientTransform="matrix(0.03186741,0,0,0.23593107,151.88151,48.66485)"
       x1="300"
       y1="50"
       x2="300"
       y2="200" /></defs><g
     inkscape:groupmode="layer"
     id="layer7"
     inkscape:label="synth_density"
     sodipodi:insensitive="true"
     style="display:none"
     transform="translate(270,-200)"><g
       id="g2373"
       transform="translate(-5.7218087e-6,92.843744)"
       inkscape:label="synthetic_mammograms"><use
         x="0"
         y="0"
         xlink:href="#rect2302"
         id="use2366" /><use
         x="0"
         y="0"
         xlink:href="#g2284"
         id="use2292"
         transform="translate(-225.29216,-150.26558)"
         inkscape:label="victre" /><use
         x="0"
         y="0"
         xlink:href="#use2295"
         id="use2368" /><use
         x="0"
         y="0"
         xlink:href="#g2013-0"
         id="use2369" /><use
         x="0"
         y="0"
         xlink:href="#g2375"
         id="use2375"
         transform="matrix(0,-1.1145145,0.94703358,0,-295.52522,227.10634)"
         inkscape:label="bar" /><use
         x="0"
         y="0"
         xlink:href="#g2013-0-4"
         id="use2370" /><text
         xml:space="preserve"
         transform="matrix(0.26458333,0,0,0.26458333,-35.99891,-14.855293)"
         id="use2372"
         style="font-style:normal;font-variant:normal;font-weight:normal;font-stretch:normal;font-size:20.6438px;line-height:normal;font-family:Calibri;-inkscape-font-specification:'Calibri, Normal';font-variant-ligatures:normal;font-variant-position:normal;font-variant-caps:normal;font-variant-numeric:normal;font-variant-alternates:normal;font-variant-east-asian:normal;font-feature-settings:normal;font-variation-settings:normal;text-indent:0;text-align:center;text-decoration-line:none;text-decoration-style:solid;text-decoration-color:#000000;letter-spacing:normal;word-spacing:normal;text-transform:none;writing-mode:lr-tb;direction:ltr;text-orientation:mixed;dominant-baseline:auto;baseline-shift:baseline;white-space:pre;shape-inside:url(#rect2303);display:inline;fill:#000000;fill-opacity:1;stroke:none;stroke-width:4.91339;stroke-linecap:round;stroke-linejoin:round;stroke-miterlimit:4;stroke-dasharray:none;stroke-dashoffset:10.8171;stroke-opacity:1"><tspan
           x="-718.32143"
           y="717.56333"
           id="tspan1">Test (Synthetic Mammograms)</tspan></text><use
         x="0"
         y="0"
         xlink:href="#text2303"
         id="use2373"
         inkscape:label="score_label" /></g></g><g
     inkscape:groupmode="layer"
     id="g2421"
     inkscape:label="synth_density_export"
     inkscape:export-filename=".\synth_density.svg"
     inkscape:export-xdpi="128"
     inkscape:export-ydpi="128"
     transform="translate(270,-200)"><g
       id="g2420"
       transform="translate(-5.7218087e-6,92.843744)"
       inkscape:label="synthetic_mammograms"><path
         id="use2414"
         style="fill:#ffffff;stroke-width:1.3;stroke-linecap:round;stroke-linejoin:round;stroke-dashoffset:10.8171"
         inkscape:label="bg"
         d="m -270,107.15626 h 155 v 72.84375 h -155 z" /><g
         id="use2415"
         transform="matrix(0.85106552,0,0,0.8365028,448.79324,395.82043)"
         inkscape:label="mlo_victre"><path
           id="use2433"
           style="stroke-width:0.568;stroke-linecap:round;stroke-linejoin:round;paint-order:stroke fill markers"
           d="m -831.29944,-334.70764 h 44.99999 v 57.77255 h -44.99999 z"
           inkscape:label="background" /><g
           id="use2434"
           inkscape:label="mlo_breast_curve"><g
             id="path2444"
             inkscape:label="breast_curve"
             transform="translate(-2.5908699e-6)"><path
               style="color:#000000;fill:#2c2c2c;-inkscape-stroke:none"
               d="m -831.29947,-334.70762 v 55.06948 c 0.58512,-0.10938 1.18357,-0.22272 1.93115,-0.37266 3.74246,-0.75056 9.78604,-2.05214 14.17723,-3.83494 4.39119,-1.7828 7.1296,-4.04665 8.52878,-7.01386 1.39918,-2.9672 1.45901,-6.63748 0.84622,-9.82975 -0.61279,-3.19227 -1.89816,-5.90618 -3.54734,-8.92799 -1.64919,-3.02181 -3.66195,-6.3512 -5.15391,-9.53892 -1.49196,-3.18772 -2.46296,-6.23334 -2.97189,-9.21613 -0.3848,-2.25526 -0.50684,-4.47305 -0.98502,-6.33524 z"
               id="path2540" /><path
               style="color:#000000;fill:#d2d2d2;-inkscape-stroke:none"
               d="m -832.29883,-335.70703 12.95313,1.87305 c 0.34599,1.63047 0.51361,3.53374 0.87109,5.6289 0.52542,3.07942 1.52577,6.21433 3.05078,9.47266 1.52501,3.25833 3.54839,6.60114 5.18164,9.59375 1.63324,2.99259 2.8596,5.59761 3.44336,8.63867 0.58377,3.04107 0.50061,6.52543 -0.76758,9.21484 -1.26818,2.68942 -3.74794,4.78736 -8,6.51368 -4.25205,1.72631 -10.27062,3.03175 -13.99804,3.77929 -0.28413,0.057 -0.48615,0.0944 -0.73438,0.14258 v -53.85742 l -1,1 z m 0,0 v 1 56.27344 l 1.1836,-0.22071 c 0.5867,-0.10967 1.19015,-0.22588 1.94336,-0.37695 3.75748,-0.75357 9.8271,-2.04939 14.35742,-3.88867 4.53031,-1.83928 7.52647,-4.26868 9.05664,-7.51367 1.53017,-3.24499 1.56564,-7.0999 0.92383,-10.44336 -0.64182,-3.34347 -1.98723,-6.16773 -3.65235,-9.21875 -1.66512,-3.05101 -3.66609,-6.36728 -5.125,-9.48438 -1.45891,-3.1171 -2.40013,-6.07478 -2.89258,-8.96094 -0.37241,-2.18266 -0.48639,-4.40827 -1.00195,-6.41601 l -0.19336,-0.75 z"
               id="path2541" /></g><g
             id="path2445"
             inkscape:label="pectoral"
             transform="translate(-2.5908699e-6)"><path
               style="color:#000000;fill:#ffffff;-inkscape-stroke:none"
               d="m -831.13994,-334.54809 v 28.97394 c 1.66674,-3.74152 4.18819,-9.78343 6.01687,-15.16748 1.89514,-5.57974 3.02588,-10.39618 3.7138,-13.45742 0.0303,-0.13488 0.0464,-0.2209 0.0749,-0.34904 z"
               id="path2542" /><path
               style="color:#000000;fill:#ffffff;-inkscape-stroke:none"
               d="m -831.29883,-334.70703 9.76953,0.3125 c -0.0105,0.0502 -0.0214,0.099 -0.0351,0.16016 -0.68757,3.05967 -1.81663,7.86984 -3.70899,13.4414 -1.73351,5.10384 -4.04779,10.62405 -5.70703,14.38672 v -28.14258 l -0.16015,0.16016 z m 0,0 v 0.1582 28.97461 l 0.30469,0.0645 c 1.66838,-3.7452 4.19013,-9.78777 6.02148,-15.17968 1.89792,-5.58791 3.03048,-10.41181 3.71875,-13.47461 0.0308,-0.13724 0.0482,-0.22381 0.0762,-0.34961 l 0.043,-0.19336 z"
               id="path2543" /></g></g><path
           style="color:#000000;fill:#000000;stroke-linecap:round;stroke-linejoin:round;-inkscape-stroke:none"
           d="m -831.29883,-335.70703 a 1.0001,1.0001 0 0 0 -1,1 v 57.77148 a 1.0001,1.0001 0 0 0 1,1 h 45 a 1.0001,1.0001 0 0 0 1,-1 v -57.77148 a 1.0001,1.0001 0 0 0 -1,-1 z m 1,2 h 43 v 55.77148 h -43 z"
           id="use2435" /><g
           id="g2443"
           inkscape:label="chip"
           transform="matrix(0.85693046,0,0,0.85693046,-140.28444,-57.757111)"><path
             id="rect2435"
             style="fill:#ffffff;stroke-width:1.54074;stroke-linecap:round;stroke-linejoin:round;stroke-dashoffset:10.8171"
             d="m -773.54944,-317.77594 h 11.72217 v 11.95459 h -11.72217 z" /><g
             id="g2442"
             inkscape:label="pins"><g
               id="g2439"
               inkscape:label="pins"><path
                 id="rect2437"
                 style="fill:#ffffff;stroke-width:1.54074;stroke-linecap:round;stroke-linejoin:round;stroke-dashoffset:10.8171"
                 d="m -761.7995,-316.58051 h 2.35 v 1.19546 h -2.35 z" /><path
                 id="use2437"
                 style="fill:#ffffff;stroke-width:1.54074;stroke-linecap:round;stroke-linejoin:round;stroke-dashoffset:10.8171"
                 d="m -761.7995,-313.78665 h 2.35 v 1.19545 h -2.35 z" /><path
                 id="use2438"
                 style="fill:#ffffff;stroke-width:1.54074;stroke-linecap:round;stroke-linejoin:round;stroke-dashoffset:10.8171"
                 d="m -761.7995,-310.9928 h 2.35 v 1.19546 h -2.35 z" /><path
                 id="use2439"
                 style="fill:#ffffff;stroke-width:1.54074;stroke-linecap:round;stroke-linejoin:round;stroke-dashoffset:10.8171"
                 d="m -761.7995,-308.19894 h 2.35 v 1.19545 h -2.35 z" /></g><g
               id="use2440"
               inkscape:label="pins"
               transform="translate(-14.127718,-0.00664738)"><path
                 id="rect2446"
                 style="fill:#ffffff;stroke-width:1.54074;stroke-linecap:round;stroke-linejoin:round;stroke-dashoffset:10.8171"
                 d="m -761.7995,-316.58051 h 2.35 v 1.19546 h -2.35 z" /><path
                 id="use2446"
                 style="fill:#ffffff;stroke-width:1.54074;stroke-linecap:round;stroke-linejoin:round;stroke-dashoffset:10.8171"
                 d="m -761.7995,-313.78665 h 2.35 v 1.19545 h -2.35 z" /><path
                 id="use2447"
                 style="fill:#ffffff;stroke-width:1.54074;stroke-linecap:round;stroke-linejoin:round;stroke-dashoffset:10.8171"
                 d="m -761.7995,-310.9928 h 2.35 v 1.19546 h -2.35 z" /><path
                 id="use2448"
                 style="fill:#ffffff;stroke-width:1.54074;stroke-linecap:round;stroke-linejoin:round;stroke-dashoffset:10.8171"
                 d="m -761.7995,-308.19894 h 2.35 v 1.19545 h -2.35 z" /></g><g
               id="use2441"
               inkscape:label="pins"
               transform="matrix(0,1.0174091,-0.98288884,0,-1074.1453,454.89074)"><path
                 id="rect2449"
                 style="fill:#ffffff;stroke-width:1.54074;stroke-linecap:round;stroke-linejoin:round;stroke-dashoffset:10.8171"
                 d="m -761.7995,-316.58051 h 2.35 v 1.19546 h -2.35 z" /><path
                 id="use2449"
                 style="fill:#ffffff;stroke-width:1.54074;stroke-linecap:round;stroke-linejoin:round;stroke-dashoffset:10.8171"
                 d="m -761.7995,-313.78665 h 2.35 v 1.19545 h -2.35 z" /><path
                 id="use2450"
                 style="fill:#ffffff;stroke-width:1.54074;stroke-linecap:round;stroke-linejoin:round;stroke-dashoffset:10.8171"
                 d="m -761.7995,-310.9928 h 2.35 v 1.19546 h -2.35 z" /><path
                 id="use2451"
                 style="fill:#ffffff;stroke-width:1.54074;stroke-linecap:round;stroke-linejoin:round;stroke-dashoffset:10.8171"
                 d="m -761.7995,-308.19894 h 2.35 v 1.19545 h -2.35 z" /></g><g
               id="use2442"
               inkscape:label="pins"
               transform="matrix(0,1.0174091,-0.98288884,0,-1074.1453,469.24031)"><path
                 id="rect2451"
                 style="fill:#ffffff;stroke-width:1.54074;stroke-linecap:round;stroke-linejoin:round;stroke-dashoffset:10.8171"
                 d="m -761.7995,-316.58051 h 2.35 v 1.19546 h -2.35 z" /><path
                 id="use2452"
                 style="fill:#ffffff;stroke-width:1.54074;stroke-linecap:round;stroke-linejoin:round;stroke-dashoffset:10.8171"
                 d="m -761.7995,-313.78665 h 2.35 v 1.19545 h -2.35 z" /><path
                 id="use2453"
                 style="fill:#ffffff;stroke-width:1.54074;stroke-linecap:round;stroke-linejoin:round;stroke-dashoffset:10.8171"
                 d="m -761.7995,-310.9928 h 2.35 v 1.19546 h -2.35 z" /><path
                 id="use2454"
                 style="fill:#ffffff;stroke-width:1.54074;stroke-linecap:round;stroke-linejoin:round;stroke-dashoffset:10.8171"
                 d="m -761.7995,-308.19894 h 2.35 v 1.19545 h -2.35 z" /></g></g><path
             id="ellipse2442"
             style="stroke-width:1.54074;stroke-linecap:round;stroke-linejoin:round;stroke-dashoffset:10.8171"
             transform="translate(-7.976276e-6,1.5690324e-5)"
             d="m -771.19949,-315.98279 a 0.58749884,0.59772664 0 0 1 -0.5875,0.59773 0.58749884,0.59772664 0 0 1 -0.5875,-0.59773 0.58749884,0.59772664 0 0 1 0.5875,-0.59772 0.58749884,0.59772664 0 0 1 0.5875,0.59772 z" /></g></g><g
         id="use2416"
         transform="matrix(0.22727237,0,0,0.23333374,92.437075,249.27341)"
         inkscape:export-filename=".\mlp.svg"
         inkscape:export-xdpi="96"
         inkscape:export-ydpi="96"
         inkscape:label="mlp"><g
           id="path2454"><path
             style="color:#000000;fill:#000000;stroke-linecap:round;stroke-linejoin:round;-inkscape-stroke:none;paint-order:stroke fill markers"
             d="m -1250.1582,-528.76172 a 1,1 0 0 0 -0.5742,0.50391 1,1 0 0 0 0.4531,1.33984 l 78.9004,39 a 1,1 0 0 0 1.3379,-0.45312 1,1 0 0 0 -0.4531,-1.33985 l -78.9004,-39 a 1,1 0 0 0 -0.7637,-0.0508 z"
             id="path2544" /><path
             style="color:#000000;fill:#000000;stroke-linecap:round;stroke-linejoin:round;-inkscape-stroke:none;paint-order:stroke fill markers"
             d="m -1170.9367,-488.8138 -78.9,-39"
             id="path2545" /></g><g
           id="path2455"><path
             style="color:#000000;fill:#000000;stroke-linecap:round;stroke-linejoin:round;-inkscape-stroke:none;paint-order:stroke fill markers"
             d="m -1170.6152,-448.76172 a 1,1 0 0 0 -0.7637,0.0508 l -78.9004,39 a 1,1 0 0 0 -0.4531,1.33985 1,1 0 0 0 1.3379,0.45312 l 78.9004,-39 a 1,1 0 0 0 0.4531,-1.33984 1,1 0 0 0 -0.5742,-0.50391 z"
             id="path2546" /><path
             style="color:#000000;fill:#000000;stroke-linecap:round;stroke-linejoin:round;-inkscape-stroke:none;paint-order:stroke fill markers"
             d="m -1170.9367,-447.8138 -78.9,39"
             id="path2547" /></g><g
           id="g2457"
           transform="translate(11.198467,-120.94197)"><g
             id="path2456"><path
               style="color:#000000;fill:#000000;stroke-linecap:round;stroke-linejoin:round;-inkscape-stroke:none;paint-order:stroke fill markers"
               d="m -1182.4785,-367.76758 -79,39 a 1,1 0 0 0 -0.4531,1.33789 1,1 0 0 0 1.3398,0.45508 l 79,-39 a 1,1 0 0 0 0.4531,-1.33984 1,1 0 0 0 -1.3398,-0.45313 z"
               id="path2548" /><path
               style="color:#000000;fill:#000000;stroke-linecap:round;stroke-linejoin:round;-inkscape-stroke:none;paint-order:stroke fill markers"
               d="m -1182.0352,-366.87184 -79,39"
               id="path2549" /></g><g
             id="path2457"><path
               style="color:#000000;fill:#000000;stroke-linecap:round;stroke-linejoin:round;-inkscape-stroke:none;paint-order:stroke fill markers"
               d="m -1260.5918,-367.76758 a 1,1 0 0 0 -1.3398,0.45313 1,1 0 0 0 0.4531,1.33984 l 79,39 a 1,1 0 0 0 1.3398,-0.45508 1,1 0 0 0 -0.4531,-1.33789 z"
               id="path2550" /><path
               style="color:#000000;fill:#000000;stroke-linecap:round;stroke-linejoin:round;-inkscape-stroke:none;paint-order:stroke fill markers"
               d="m -1261.0352,-366.87184 79,39"
               id="path2551" /></g></g><g
           id="g2459"
           transform="translate(140.01679,-230.02836)"><g
             id="path2458"><path
               style="color:#000000;fill:#000000;stroke-linecap:round;stroke-linejoin:round;-inkscape-stroke:none;paint-order:stroke fill markers"
               d="m -1350.4043,-278.61914 a 1,1 0 0 0 -0.2832,1.38477 l 39,59 a 1,1 0 0 0 1.3848,0.2832 1,1 0 0 0 0.2832,-1.38477 l -39,-59 a 1,1 0 0 0 -1.3848,-0.2832 z"
               id="path2552" /><path
               style="color:#000000;fill:#000000;stroke-linecap:round;stroke-linejoin:round;-inkscape-stroke:none;paint-order:stroke fill markers"
               d="m -1349.8535,-277.78545 39,59"
               id="path2553" /></g><g
             id="path2459"><path
               style="color:#000000;fill:#000000;stroke-linecap:round;stroke-linejoin:round;-inkscape-stroke:none;paint-order:stroke fill markers"
               d="m -1310.3027,-258.61914 a 1,1 0 0 0 -1.3848,0.2832 l -39,59 a 1,1 0 0 0 0.2832,1.38477 1,1 0 0 0 1.3848,-0.2832 l 39,-59 a 1,1 0 0 0 -0.2832,-1.38477 z"
               id="path2554" /><path
               style="color:#000000;fill:#000000;stroke-linecap:round;stroke-linejoin:round;-inkscape-stroke:none;paint-order:stroke fill markers"
               d="m -1349.8535,-198.78545 39,-59"
               id="path2555" /></g></g><g
           id="g2468"
           transform="translate(140.01679,-230.02836)"><g
             id="path2460"><path
               style="color:#000000;fill:#000000;stroke-linecap:round;stroke-linejoin:round;-inkscape-stroke:none;paint-order:stroke fill markers"
               d="m -1389.416,-219.68359 a 1,1 0 0 0 -1.336,0.46093 1,1 0 0 0 0.461,1.33594 l 39,19 a 1,1 0 0 0 1.3359,-0.46094 1,1 0 0 0 -0.4609,-1.33593 z"
               id="path2556" /><path
               style="color:#000000;fill:#000000;stroke-linecap:round;stroke-linejoin:round;-inkscape-stroke:none;paint-order:stroke fill markers"
               d="m -1350.8535,-199.78545 -39,-19"
               id="path2557" /></g><g
             id="path2461"><path
               style="color:#000000;fill:#000000;stroke-linecap:round;stroke-linejoin:round;-inkscape-stroke:none;paint-order:stroke fill markers"
               d="m -1351.291,-277.68359 -39,19 a 1,1 0 0 0 -0.461,1.33593 1,1 0 0 0 1.336,0.46094 l 39,-19 a 1,1 0 0 0 0.4609,-1.33594 1,1 0 0 0 -1.3359,-0.46093 z"
               id="path2558" /><path
               style="color:#000000;fill:#000000;stroke-linecap:round;stroke-linejoin:round;-inkscape-stroke:none;paint-order:stroke fill markers"
               d="m -1350.8535,-276.78545 -39,19"
               id="path2559" /></g><g
             id="path2462"><path
               style="color:#000000;fill:#000000;stroke-linecap:round;stroke-linejoin:round;-inkscape-stroke:none;paint-order:stroke fill markers"
               d="m -1390.4043,-298.11914 a 1,1 0 0 0 -0.2832,1.38477 l 39,59 a 1,1 0 0 0 1.3848,0.2832 1,1 0 0 0 0.2832,-1.38477 l -39,-59 a 1,1 0 0 0 -1.3848,-0.2832 z"
               id="path2560" /><path
               style="color:#000000;fill:#000000;stroke-linecap:round;stroke-linejoin:round;-inkscape-stroke:none;paint-order:stroke fill markers"
               d="m -1389.8535,-297.28545 39,59"
               id="path2561" /></g><g
             id="path2463"><path
               style="color:#000000;fill:#000000;stroke-linecap:round;stroke-linejoin:round;-inkscape-stroke:none;paint-order:stroke fill markers"
               d="m -1350.3027,-239.11914 a 1,1 0 0 0 -1.3848,0.2832 l -39,59 a 1,1 0 0 0 0.2832,1.38477 1,1 0 0 0 1.3848,-0.2832 l 39,-59 a 1,1 0 0 0 -0.2832,-1.38477 z"
               id="path2562" /><path
               style="color:#000000;fill:#000000;stroke-linecap:round;stroke-linejoin:round;-inkscape-stroke:none;paint-order:stroke fill markers"
               d="m -1389.8535,-179.28545 39,-59"
               id="path2563" /></g><g
             id="path2464"><path
               style="color:#000000;fill:#000000;stroke-linecap:round;stroke-linejoin:round;-inkscape-stroke:none;paint-order:stroke fill markers"
               d="m -1390.4043,-259.61914 a 1,1 0 0 0 -0.2832,1.38477 l 39,59 a 1,1 0 0 0 1.3848,0.2832 1,1 0 0 0 0.2832,-1.38477 l -39,-59 a 1,1 0 0 0 -1.3848,-0.2832 z"
               id="path2564" /><path
               style="color:#000000;fill:#000000;stroke-linecap:round;stroke-linejoin:round;-inkscape-stroke:none;paint-order:stroke fill markers"
               d="m -1389.8535,-258.78545 39,59"
               id="path2565" /></g><g
             id="path2465"><path
               style="color:#000000;fill:#000000;stroke-linecap:round;stroke-linejoin:round;-inkscape-stroke:none;paint-order:stroke fill markers"
               d="m -1350.3027,-277.61914 a 1,1 0 0 0 -1.3848,0.2832 l -39,59 a 1,1 0 0 0 0.2832,1.38477 1,1 0 0 0 1.3848,-0.2832 l 39,-59 a 1,1 0 0 0 -0.2832,-1.38477 z"
               id="path2566" /><path
               style="color:#000000;fill:#000000;stroke-linecap:round;stroke-linejoin:round;-inkscape-stroke:none;paint-order:stroke fill markers"
               d="m -1389.8535,-217.78545 39,-59"
               id="path2567" /></g><g
             id="g2467"
             transform="translate(-99.316622,145.38668)"><g
               id="path2466"><path
                 style="color:#000000;fill:#000000;stroke-linecap:round;stroke-linejoin:round;-inkscape-stroke:none;paint-order:stroke fill markers"
                 d="m -1290.9043,-444.10156 a 1,1 0 0 0 -0.5625,1.29687 l 39,99 a 1,1 0 0 0 1.2969,0.5625 1,1 0 0 0 0.5625,-1.29687 l -39,-99 a 1,1 0 0 0 -1.2969,-0.5625 z"
                 id="path2568" /><path
                 style="color:#000000;fill:#000000;stroke-linecap:round;stroke-linejoin:round;-inkscape-stroke:none;paint-order:stroke fill markers"
                 d="m -1290.5369,-443.17212 39,99"
                 id="path2569" /></g><g
               id="path2467"><path
                 style="color:#000000;fill:#000000;stroke-linecap:round;stroke-linejoin:round;-inkscape-stroke:none;paint-order:stroke fill markers"
                 d="m -1251.1699,-424.10156 a 1,1 0 0 0 -1.2969,0.5625 l -39,99 a 1,1 0 0 0 0.5625,1.29687 1,1 0 0 0 1.2969,-0.5625 l 39,-99 a 1,1 0 0 0 -0.5625,-1.29687 z"
                 id="path2570" /><path
                 style="color:#000000;fill:#000000;stroke-linecap:round;stroke-linejoin:round;-inkscape-stroke:none;paint-order:stroke fill markers"
                 d="m -1290.5369,-324.17212 39,-99"
                 id="path2571" /></g></g></g><g
           id="path2468"><path
             style="color:#000000;fill:#ffffff;fill-rule:evenodd;stroke-linecap:round;stroke-linejoin:round;-inkscape-stroke:none;paint-order:markers fill stroke"
             d="m -1236.3368,-528.31378 a 14,14 0 0 1 -14,14 14,14 0 0 1 -14,-14 14,14 0 0 1 14,-14 14,14 0 0 1 14,14 z"
             id="path2572" /><path
             style="color:#000000;fill:#000000;fill-rule:evenodd;stroke-linecap:round;stroke-linejoin:round;-inkscape-stroke:none;paint-order:markers fill stroke"
             d="m -1250.3359,-543.31445 c -8.2725,0 -15,6.72758 -15,15 0,8.27242 6.7275,15 15,15 8.2724,0 15,-6.72758 15,-15 0,-8.27242 -6.7276,-15 -15,-15 z m 0,2 c 7.1915,0 13,5.80846 13,13 0,7.19154 -5.8085,13 -13,13 -7.1916,0 -13,-5.80846 -13,-13 0,-7.19154 5.8084,-13 13,-13 z"
             id="path2573" /></g><g
           id="path2469"><path
             style="color:#000000;fill:#ffffff;fill-rule:evenodd;stroke-linecap:round;stroke-linejoin:round;-inkscape-stroke:none;paint-order:markers fill stroke"
             d="m -1236.3368,-488.31381 a 14,14 0 0 1 -14,14 14,14 0 0 1 -14,-14 14,14 0 0 1 14,-14 14,14 0 0 1 14,14 z"
             id="path2574" /><path
             style="color:#000000;fill:#000000;fill-rule:evenodd;stroke-linecap:round;stroke-linejoin:round;-inkscape-stroke:none;paint-order:markers fill stroke"
             d="m -1250.3359,-503.31445 c -8.2725,0 -15,6.72758 -15,15 0,8.27242 6.7275,15 15,15 8.2724,0 15,-6.72758 15,-15 0,-8.27242 -6.7276,-15 -15,-15 z m 0,2 c 7.1915,0 13,5.80846 13,13 0,7.19154 -5.8085,13 -13,13 -7.1916,0 -13,-5.80846 -13,-13 0,-7.19154 5.8084,-13 13,-13 z"
             id="path2575" /></g><g
           id="path2470"><path
             style="color:#000000;fill:#ffffff;fill-rule:evenodd;stroke-linecap:round;stroke-linejoin:round;-inkscape-stroke:none;paint-order:markers fill stroke"
             d="m -1236.3368,-448.31381 a 14,14 0 0 1 -14,14 14,14 0 0 1 -14,-14 14,14 0 0 1 14,-14 14,14 0 0 1 14,14 z"
             id="path2576" /><path
             style="color:#000000;fill:#000000;fill-rule:evenodd;stroke-linecap:round;stroke-linejoin:round;-inkscape-stroke:none;paint-order:markers fill stroke"
             d="m -1250.3359,-463.31445 c -8.2725,0 -15,6.72758 -15,15 0,8.27242 6.7275,15 15,15 8.2724,0 15,-6.72758 15,-15 0,-8.27242 -6.7276,-15 -15,-15 z m 0,2 c 7.1915,0 13,5.80846 13,13 0,7.19154 -5.8085,13 -13,13 -7.1916,0 -13,-5.80846 -13,-13 0,-7.19154 5.8084,-13 13,-13 z"
             id="path2577" /></g><g
           id="path2471"><path
             style="color:#000000;fill:#ffffff;fill-rule:evenodd;stroke-linecap:round;stroke-linejoin:round;-inkscape-stroke:none;paint-order:markers fill stroke"
             d="m -1236.3368,-408.31381 a 14,14 0 0 1 -14,14 14,14 0 0 1 -14,-14 14,14 0 0 1 14,-14 14,14 0 0 1 14,14 z"
             id="path2578" /><path
             style="color:#000000;fill:#000000;fill-rule:evenodd;stroke-linecap:round;stroke-linejoin:round;-inkscape-stroke:none;paint-order:markers fill stroke"
             d="m -1250.3359,-423.31445 c -8.2725,0 -15,6.72758 -15,15 0,8.27242 6.7275,15 15,15 8.2724,0 15,-6.72758 15,-15 0,-8.27242 -6.7276,-15 -15,-15 z m 0,2 c 7.1915,0 13,5.80846 13,13 0,7.19154 -5.8085,13 -13,13 -7.1916,0 -13,-5.80846 -13,-13 0,-7.19154 5.8084,-13 13,-13 z"
             id="path2579" /></g><g
           id="g2474"
           transform="translate(140.01679,-230.02836)"><g
             id="path2472"><path
               style="color:#000000;fill:#ffffff;fill-rule:evenodd;stroke-linecap:round;stroke-linejoin:round;-inkscape-stroke:none;paint-order:markers fill stroke"
               d="m -1336.3535,-278.28543 a 14,14 0 0 1 -14,14 14,14 0 0 1 -14,-14 14,14 0 0 1 14,-14 14,14 0 0 1 14,14 z"
               id="path2580" /><path
               style="color:#000000;fill:#000000;fill-rule:evenodd;stroke-linecap:round;stroke-linejoin:round;-inkscape-stroke:none;paint-order:markers fill stroke"
               d="m -1350.3535,-293.28516 c -8.2724,0 -15,6.72759 -15,15 0,8.27242 6.7276,15 15,15 8.2724,0 15,-6.72758 15,-15 0,-8.27241 -6.7276,-15 -15,-15 z m 0,2 c 7.1915,0 13,5.80846 13,13 0,7.19154 -5.8085,13 -13,13 -7.1916,0 -13,-5.80846 -13,-13 0,-7.19154 5.8084,-13 13,-13 z"
               id="path2581" /></g><g
             id="path2473"><path
               style="color:#000000;fill:#ffffff;fill-rule:evenodd;stroke-linecap:round;stroke-linejoin:round;-inkscape-stroke:none;paint-order:markers fill stroke"
               d="m -1336.3535,-238.28545 a 14,14 0 0 1 -14,14 14,14 0 0 1 -14,-14 14,14 0 0 1 14,-14 14,14 0 0 1 14,14 z"
               id="path2582" /><path
               style="color:#000000;fill:#000000;fill-rule:evenodd;stroke-linecap:round;stroke-linejoin:round;-inkscape-stroke:none;paint-order:markers fill stroke"
               d="m -1350.3535,-253.28516 c -8.2724,0 -15,6.72759 -15,15 0,8.27242 6.7276,15 15,15 8.2724,0 15,-6.72758 15,-15 0,-8.27241 -6.7276,-15 -15,-15 z m 0,2 c 7.1915,0 13,5.80846 13,13 0,7.19154 -5.8085,13 -13,13 -7.1916,0 -13,-5.80846 -13,-13 0,-7.19154 5.8084,-13 13,-13 z"
               id="path2583" /></g><g
             id="path2474"><path
               style="color:#000000;fill:#ffffff;fill-rule:evenodd;stroke-linecap:round;stroke-linejoin:round;-inkscape-stroke:none;paint-order:markers fill stroke"
               d="m -1336.3535,-198.28545 a 14,14 0 0 1 -14,14 14,14 0 0 1 -14,-14 14,14 0 0 1 14,-14 14,14 0 0 1 14,14 z"
               id="path2584" /><path
               style="color:#000000;fill:#000000;fill-rule:evenodd;stroke-linecap:round;stroke-linejoin:round;-inkscape-stroke:none;paint-order:markers fill stroke"
               d="m -1350.3535,-213.28516 c -8.2724,0 -15,6.72759 -15,15 0,8.27242 6.7276,15 15,15 8.2724,0 15,-6.72758 15,-15 0,-8.27241 -6.7276,-15 -15,-15 z m 0,2 c 7.1915,0 13,5.80846 13,13 0,7.19154 -5.8085,13 -13,13 -7.1916,0 -13,-5.80846 -13,-13 0,-7.19154 5.8084,-13 13,-13 z"
               id="path2585" /></g></g><g
           id="path2475"><path
             style="color:#000000;fill:#ffffff;fill-rule:evenodd;stroke-linecap:round;stroke-linejoin:round;-inkscape-stroke:none;paint-order:markers fill stroke"
             d="m -1156.3368,-488.31381 a 14,14 0 0 1 -14,14 14,14 0 0 1 -14,-14 14,14 0 0 1 14,-14 14,14 0 0 1 14,14 z"
             id="path2586" /><path
             style="color:#000000;fill:#000000;fill-rule:evenodd;stroke-linecap:round;stroke-linejoin:round;-inkscape-stroke:none;paint-order:markers fill stroke"
             d="m -1170.3359,-503.31445 c -8.2725,0 -15,6.72758 -15,15 0,8.27242 6.7275,15 15,15 8.2724,0 15,-6.72758 15,-15 0,-8.27242 -6.7276,-15 -15,-15 z m 0,2 c 7.1915,0 13,5.80846 13,13 0,7.19154 -5.8085,13 -13,13 -7.1916,0 -13,-5.80846 -13,-13 0,-7.19154 5.8084,-13 13,-13 z"
             id="path2587" /></g><g
           id="path2476"><path
             style="color:#000000;fill:#ffffff;fill-rule:evenodd;stroke-linecap:round;stroke-linejoin:round;-inkscape-stroke:none;paint-order:markers fill stroke"
             d="m -1156.3368,-448.31381 a 14,14 0 0 1 -14,14 14,14 0 0 1 -14,-14 14,14 0 0 1 14,-14 14,14 0 0 1 14,14 z"
             id="path2588" /><path
             style="color:#000000;fill:#000000;fill-rule:evenodd;stroke-linecap:round;stroke-linejoin:round;-inkscape-stroke:none;paint-order:markers fill stroke"
             d="m -1170.3359,-463.31445 c -8.2725,0 -15,6.72758 -15,15 0,8.27242 6.7275,15 15,15 8.2724,0 15,-6.72758 15,-15 0,-8.27242 -6.7276,-15 -15,-15 z m 0,2 c 7.1915,0 13,5.80846 13,13 0,7.19154 -5.8085,13 -13,13 -7.1916,0 -13,-5.80846 -13,-13 0,-7.19154 5.8084,-13 13,-13 z"
             id="path2589" /></g></g><g
         id="use2417"
         transform="translate(-221.86654,-90.103134)"><path
           style="color:#000000;fill:#000000;fill-rule:evenodd;-inkscape-stroke:none"
           d="m 7.6933594,229.85742 v 0.5 H 18.203125 v -0.5 z"
           id="path2477" /><g
           id="g2480"><g
             id="g2479"><path
               style="color:#000000;fill:#000000;fill-rule:evenodd;stroke-linejoin:round;-inkscape-stroke:none"
               d="m 17.239611,229.50158 1.638881,0.60266 -1.638881,0.60266 c 0.261824,-0.35581 0.260316,-0.84262 0,-1.20532 z"
               id="path2478" /><path
               style="color:#000000;fill:#000000;fill-rule:evenodd;stroke-linejoin:round;-inkscape-stroke:none"
               d="m 17.255859,229.45703 a 0.04687969,0.04687969 0 0 0 -0.05469,0.0723 c 0.248781,0.34662 0.249676,0.81109 0,1.15039 a 0.04687969,0.04687969 0 0 0 0.05469,0.0703 l 1.638672,-0.60156 a 0.04687969,0.04687969 0 0 0 0,-0.0879 z m 0.02148,0.10742 1.466797,0.53907 -1.466797,0.53906 c 0.2001,-0.33451 0.199663,-0.73919 0,-1.07813 z"
               id="path2479" /></g></g></g><g
         id="use2418"
         inkscape:label="bar"
         transform="matrix(0,-1.1145145,0.94703358,0,-295.52522,227.10634)"><g
           id="rect2481"
           inkscape:label="heatmap_w"
           transform="matrix(0,1,1,0,0,0)"><path
             style="color:#000000;fill:url(#linearGradient2482);-inkscape-stroke:none"
             d="m 161.44173,60.461472 h 4.78011 v 35.389667 h -4.78011 z"
             id="path2590" /><path
             style="color:#000000;fill:#000000;-inkscape-stroke:none"
             d="m 161.19141,60.210937 v 35.890625 h 5.28125 V 60.210937 Z m 0.5,0.5 h 4.28125 v 34.890625 h -4.28125 z"
             id="path2591" /></g><path
           style="-inkscape-font-specification:'Calibri, Normal';fill:#ffffff;stroke-width:0.0448991;stroke-linecap:round;stroke-linejoin:round;stroke-dashoffset:3.84189"
           d="m 135.88255,-111.18384 q 0,0.0264 -0.004,0.0444 -0.004,0.0181 -0.0111,0.0292 -0.007,0.0111 -0.0167,0.0167 -0.008,0.004 -0.0181,0.004 h -0.93881 q -0.01,0 -0.0181,-0.004 -0.008,-0.006 -0.0167,-0.0167 -0.007,-0.0111 -0.0111,-0.0292 -0.004,-0.0181 -0.004,-0.0444 0,-0.025 0.004,-0.043 0.004,-0.0181 0.01,-0.0292 0.007,-0.0125 0.0153,-0.0181 0.01,-0.007 0.0208,-0.007 h 0.37497 v -1.36656 l -0.34719,0.20693 q -0.0264,0.0139 -0.0431,0.0167 -0.0153,0.003 -0.025,-0.006 -0.01,-0.01 -0.0139,-0.0306 -0.003,-0.0208 -0.003,-0.0528 0,-0.0236 0.001,-0.0403 0.003,-0.0167 0.007,-0.0278 0.004,-0.0111 0.0111,-0.0195 0.008,-0.008 0.0208,-0.0167 l 0.41385,-0.26526 q 0.006,-0.004 0.0139,-0.007 0.008,-0.003 0.0208,-0.006 0.0125,-0.003 0.0292,-0.003 0.0167,-0.001 0.0417,-0.001 0.0333,0 0.0556,0.003 0.0222,0.003 0.0347,0.008 0.0125,0.004 0.0167,0.0125 0.004,0.007 0.004,0.0153 v 1.57904 h 0.32497 q 0.0111,0 0.0208,0.007 0.01,0.006 0.0153,0.0181 0.007,0.0111 0.01,0.0292 0.004,0.0181 0.004,0.043 z m 0.66244,-0.0569 q 0,0.0986 -0.0333,0.13194 -0.0319,0.0319 -0.11804,0.0319 -0.0833,0 -0.11527,-0.0319 -0.0319,-0.0319 -0.0319,-0.12777 0,-0.0986 0.0319,-0.13055 0.0333,-0.0333 0.11943,-0.0333 0.0833,0 0.11527,0.032 0.0319,0.0319 0.0319,0.12776 z m 1.55265,-0.75132 q 0,0.20692 -0.0333,0.37774 -0.0319,0.17082 -0.10832,0.29442 -0.075,0.12221 -0.19721,0.19026 -0.12221,0.0667 -0.30136,0.0667 -0.16943,0 -0.28609,-0.0597 -0.11527,-0.0611 -0.1861,-0.17776 -0.0708,-0.11805 -0.10138,-0.28887 -0.0292,-0.17221 -0.0292,-0.39441 0,-0.20554 0.0333,-0.37636 0.0333,-0.17221 0.10832,-0.29442 0.075,-0.1236 0.19721,-0.19026 0.12221,-0.068 0.29998,-0.068 0.17082,0 0.28608,0.0611 0.11666,0.0597 0.18749,0.17777 0.0708,0.11665 0.1,0.28886 0.0306,0.17082 0.0306,0.39303 z m -0.24442,0.0167 q 0,-0.13471 -0.01,-0.24165 -0.01,-0.10693 -0.0292,-0.18887 -0.0181,-0.0819 -0.0486,-0.14027 -0.0292,-0.0597 -0.0708,-0.0972 -0.0417,-0.0389 -0.0958,-0.0555 -0.0528,-0.0181 -0.11943,-0.0181 -0.11805,0 -0.19165,0.0555 -0.0736,0.0555 -0.11666,0.15276 -0.0417,0.0972 -0.0569,0.22776 -0.0153,0.13055 -0.0153,0.28053 0,0.20138 0.0208,0.34303 0.0208,0.14027 0.0653,0.22915 0.0458,0.0889 0.11527,0.12915 0.0708,0.0403 0.17082,0.0403 0.0778,0 0.1361,-0.025 0.0597,-0.025 0.10138,-0.0708 0.043,-0.0472 0.0708,-0.11249 0.0278,-0.0653 0.0444,-0.14443 0.0167,-0.0792 0.0222,-0.17082 0.007,-0.0931 0.007,-0.19304 z"
           id="text2481"
           inkscape:label="1.0"
           transform="matrix(0,1.2005211,-0.83297161,0,0,0)"
           aria-label="1.0" /><path
           style="-inkscape-font-specification:'Calibri, Normal';fill:#ffffff;stroke-width:0.0439546;stroke-linecap:round;stroke-linejoin:round;stroke-dashoffset:3.84189"
           d="m 138.95115,-73.782797 q 0,0.202574 -0.0326,0.369799 -0.0313,0.167225 -0.10605,0.288226 -0.0734,0.119641 -0.19305,0.186259 -0.11964,0.06526 -0.29503,0.06526 -0.16586,0 -0.28006,-0.05846 -0.11285,-0.05982 -0.18218,-0.174023 -0.0693,-0.115563 -0.0993,-0.282788 -0.0285,-0.168585 -0.0285,-0.386114 0,-0.201214 0.0326,-0.368439 0.0326,-0.168585 0.10604,-0.288226 0.0734,-0.121001 0.19306,-0.186259 0.11964,-0.06662 0.29366,-0.06662 0.16723,0 0.28007,0.05982 0.1142,0.05846 0.18354,0.174023 0.0693,0.114203 0.0979,0.282788 0.0299,0.167225 0.0299,0.384754 z m -0.23928,0.01632 q 0,-0.131877 -0.01,-0.236563 -0.01,-0.104686 -0.0285,-0.1849 -0.0177,-0.08021 -0.0476,-0.137315 -0.0285,-0.05846 -0.0693,-0.09517 -0.0408,-0.03807 -0.0938,-0.05438 -0.0517,-0.01767 -0.11692,-0.01767 -0.11556,0 -0.18762,0.05438 -0.0721,0.05438 -0.1142,0.149551 -0.0408,0.09517 -0.0557,0.222967 -0.0149,0.127798 -0.0149,0.274631 0,0.197135 0.0204,0.33581 0.0204,0.137315 0.0639,0.224326 0.0449,0.08701 0.11284,0.126439 0.0693,0.03943 0.16723,0.03943 0.0761,0 0.13324,-0.02447 0.0585,-0.02447 0.0992,-0.06934 0.0421,-0.04623 0.0693,-0.110124 0.0272,-0.0639 0.0435,-0.141394 0.0163,-0.07749 0.0217,-0.167225 0.007,-0.09109 0.007,-0.188978 z m 0.83341,0.719204 q 0,0.09653 -0.0326,0.129158 -0.0313,0.03127 -0.11557,0.03127 -0.0816,0 -0.11284,-0.03127 -0.0313,-0.03127 -0.0313,-0.125079 0,-0.09653 0.0313,-0.127798 0.0326,-0.03263 0.11692,-0.03263 0.0816,0 0.11285,0.03127 0.0313,0.03127 0.0313,0.125079 z m 1.51998,-0.735519 q 0,0.202574 -0.0326,0.369799 -0.0313,0.167225 -0.10605,0.288226 -0.0734,0.119641 -0.19305,0.186259 -0.11964,0.06526 -0.29503,0.06526 -0.16586,0 -0.28006,-0.05846 -0.11285,-0.05982 -0.18219,-0.174023 -0.0693,-0.115563 -0.0992,-0.282788 -0.0286,-0.168585 -0.0286,-0.386114 0,-0.201214 0.0326,-0.368439 0.0326,-0.168585 0.10604,-0.288226 0.0734,-0.121001 0.19306,-0.186259 0.11964,-0.06662 0.29366,-0.06662 0.16723,0 0.28007,0.05982 0.1142,0.05846 0.18354,0.174023 0.0693,0.114203 0.0979,0.282788 0.0299,0.167225 0.0299,0.384754 z m -0.23928,0.01632 q 0,-0.131877 -0.01,-0.236563 -0.01,-0.104686 -0.0285,-0.1849 -0.0177,-0.08021 -0.0476,-0.137315 -0.0285,-0.05846 -0.0693,-0.09517 -0.0408,-0.03807 -0.0938,-0.05438 -0.0517,-0.01767 -0.11692,-0.01767 -0.11557,0 -0.18762,0.05438 -0.0721,0.05438 -0.1142,0.149551 -0.0408,0.09517 -0.0558,0.222967 -0.0149,0.127798 -0.0149,0.274631 0,0.197135 0.0204,0.33581 0.0204,0.137315 0.0639,0.224326 0.0449,0.08701 0.11284,0.126439 0.0693,0.03943 0.16723,0.03943 0.0761,0 0.13324,-0.02447 0.0585,-0.02447 0.0992,-0.06934 0.0421,-0.04623 0.0693,-0.110124 0.0272,-0.0639 0.0435,-0.141394 0.0163,-0.07749 0.0217,-0.167225 0.007,-0.09109 0.007,-0.188978 z"
           id="text2482"
           inkscape:label="-1.0"
           transform="matrix(0,1.1752655,-0.85087156,0,0,0)"
           aria-label="0.0" /></g><g
         id="use2419"
         transform="translate(-169.91732,-90.103134)"><path
           style="color:#000000;fill:#000000;fill-rule:evenodd;-inkscape-stroke:none"
           d="m 7.6933594,229.85742 v 0.5 H 18.203125 v -0.5 z"
           id="path2482" /><g
           id="g2485"><g
             id="g2484"><path
               style="color:#000000;fill:#000000;fill-rule:evenodd;stroke-linejoin:round;-inkscape-stroke:none"
               d="m 17.239611,229.50158 1.638881,0.60266 -1.638881,0.60266 c 0.261824,-0.35581 0.260316,-0.84262 0,-1.20532 z"
               id="path2483" /><path
               style="color:#000000;fill:#000000;fill-rule:evenodd;stroke-linejoin:round;-inkscape-stroke:none"
               d="m 17.255859,229.45703 a 0.04687969,0.04687969 0 0 0 -0.05469,0.0723 c 0.248781,0.34662 0.249676,0.81109 0,1.15039 a 0.04687969,0.04687969 0 0 0 0.05469,0.0703 l 1.638672,-0.60156 a 0.04687969,0.04687969 0 0 0 0,-0.0879 z m 0.02148,0.10742 1.466797,0.53907 -1.466797,0.53906 c 0.2001,-0.33451 0.199663,-0.73919 0,-1.07813 z"
               id="path2484" /></g></g></g><path
         d="m -708.41281,705.26575 q 0,0.19152 -0.0202,0.33264 -0.0202,0.14112 -0.0706,0.23184 -0.0403,0.0806 -0.11088,0.12096 -0.0605,0.0403 -0.14112,0.0403 h -3.66911 v 11.30974 q 0,0.0806 -0.0403,0.14112 -0.0403,0.0605 -0.14112,0.1008 -0.1008,0.0302 -0.27216,0.0504 -0.16128,0.0302 -0.41328,0.0302 -0.24192,0 -0.41328,-0.0302 -0.17136,-0.0202 -0.27216,-0.0504 -0.1008,-0.0403 -0.14112,-0.1008 -0.0403,-0.0605 -0.0403,-0.14112 v -11.30974 h -3.66911 q -0.0806,0 -0.1512,-0.0403 -0.0605,-0.0403 -0.1008,-0.12096 -0.0403,-0.0907 -0.0706,-0.23184 -0.0202,-0.14112 -0.0202,-0.33264 0,-0.19152 0.0202,-0.33264 0.0302,-0.1512 0.0706,-0.24192 0.0403,-0.0907 0.1008,-0.13104 0.0706,-0.0403 0.1512,-0.0403 h 9.07198 q 0.0806,0 0.14112,0.0403 0.0706,0.0403 0.11088,0.13104 0.0504,0.0907 0.0706,0.24192 0.0202,0.14112 0.0202,0.33264 z m 7.60031,7.11647 q 0,0.39311 -0.2016,0.56447 -0.19152,0.16128 -0.44352,0.16128 h -5.94719 q 0,0.756 0.1512,1.3608 0.1512,0.6048 0.504,1.03824 0.3528,0.43344 0.91728,0.66528 0.56448,0.23184 1.38096,0.23184 0.64511,0 1.14911,-0.1008 0.504,-0.11088 0.86688,-0.24192 0.37296,-0.13104 0.6048,-0.23184 0.24192,-0.11088 0.36288,-0.11088 0.0706,0 0.12096,0.0403 0.0605,0.0302 0.0907,0.1008 0.0302,0.0706 0.0403,0.2016 0.0202,0.12096 0.0202,0.3024 0,0.13104 -0.0101,0.23184 -0.0101,0.0907 -0.0302,0.17136 -0.0101,0.0706 -0.0504,0.13104 -0.0302,0.0605 -0.0907,0.12096 -0.0504,0.0504 -0.32256,0.18144 -0.27216,0.12096 -0.7056,0.24192 -0.43344,0.12096 -1.008,0.21168 -0.56448,0.1008 -1.20959,0.1008 -1.11888,0 -1.9656,-0.31248 -0.83664,-0.31248 -1.4112,-0.92736 -0.57456,-0.61488 -0.86688,-1.54224 -0.29232,-0.92736 -0.29232,-2.15712 0,-1.16927 0.3024,-2.09663 0.3024,-0.93744 0.86688,-1.58256 0.57456,-0.6552 1.38096,-0.99792 0.8064,-0.3528 1.80432,-0.3528 1.06847,0 1.81439,0.34272 0.756,0.34272 1.23984,0.92736 0.48384,0.57456 0.7056,1.3608 0.23184,0.77616 0.23184,1.6632 z m -1.67328,-0.49392 q 0.0302,-1.3104 -0.58464,-2.05632 -0.6048,-0.74592 -1.80431,-0.74592 -0.61488,0 -1.07856,0.23184 -0.46368,0.23184 -0.77616,0.61488 -0.31248,0.38304 -0.48384,0.89712 -0.17136,0.504 -0.19152,1.0584 z m 9.89854,2.95343 q 0,0.69552 -0.26208,1.23984 -0.252,0.54432 -0.72576,0.91728 -0.47375,0.37296 -1.12895,0.56448 -0.6552,0.19152 -1.44144,0.19152 -0.48384,0 -0.92736,-0.0806 -0.43344,-0.0706 -0.78624,-0.18144 -0.34272,-0.12096 -0.58464,-0.24192 -0.24192,-0.13104 -0.3528,-0.23184 -0.11087,-0.1008 -0.16127,-0.28224 -0.0504,-0.18144 -0.0504,-0.49392 0,-0.19152 0.0202,-0.32256 0.0202,-0.13104 0.0504,-0.21168 0.0302,-0.0806 0.0806,-0.11088 0.0605,-0.0403 0.13103,-0.0403 0.11088,0 0.32256,0.14112 0.22176,0.13104 0.53424,0.29232 0.32256,0.16128 0.756,0.3024 0.43344,0.13104 0.99792,0.13104 0.42336,0 0.76608,-0.0907 0.34272,-0.0907 0.59472,-0.26208 0.252,-0.18144 0.38304,-0.4536 0.14112,-0.27216 0.14112,-0.64512 0,-0.38304 -0.2016,-0.64512 -0.19152,-0.26208 -0.51408,-0.46368 -0.32256,-0.2016 -0.72576,-0.3528 -0.4032,-0.16128 -0.83664,-0.33264 -0.42336,-0.17136 -0.83664,-0.38304 -0.4032,-0.22175 -0.72576,-0.53423 -0.32256,-0.31248 -0.52416,-0.74592 -0.19152,-0.43344 -0.19152,-1.03824 0,-0.53424 0.2016,-1.01808 0.21168,-0.49392 0.62496,-0.8568 0.41328,-0.37296 1.02816,-0.59472 0.62496,-0.22176 1.45152,-0.22176 0.36288,0 0.72576,0.0605 0.36288,0.0605 0.6552,0.1512 0.29232,0.0907 0.49392,0.2016 0.21167,0.1008 0.31247,0.18144 0.11088,0.0806 0.14112,0.14112 0.0403,0.0605 0.0504,0.14112 0.0202,0.0706 0.0302,0.18144 0.0202,0.11088 0.0202,0.27216 0,0.17136 -0.0202,0.3024 -0.0101,0.12096 -0.0504,0.2016 -0.0302,0.0806 -0.0806,0.12096 -0.0504,0.0302 -0.11088,0.0302 -0.0907,0 -0.26208,-0.11088 -0.17135,-0.11088 -0.44351,-0.23184 -0.27216,-0.13104 -0.64512,-0.24192 -0.36288,-0.11088 -0.83664,-0.11088 -0.42336,0 -0.74592,0.1008 -0.32256,0.0907 -0.53424,0.27216 -0.2016,0.17136 -0.31248,0.41328 -0.1008,0.24192 -0.1008,0.52416 0,0.39312 0.2016,0.66528 0.2016,0.26208 0.52416,0.46368 0.32256,0.2016 0.73584,0.36288 0.41328,0.16128 0.83664,0.33264 0.43344,0.17136 0.84672,0.38304 0.42336,0.21167 0.74591,0.51407 0.32256,0.3024 0.51408,0.72576 0.2016,0.42336 0.2016,1.008 z m 6.86447,1.80432 q 0,0.29232 -0.0403,0.46368 -0.0403,0.17136 -0.12096,0.252 -0.0806,0.0806 -0.24192,0.1512 -0.16128,0.0706 -0.37296,0.11088 -0.2016,0.0504 -0.43344,0.0806 -0.23184,0.0302 -0.46368,0.0302 -0.7056,0 -1.2096,-0.18144 -0.50399,-0.19152 -0.82655,-0.56448 -0.32256,-0.38304 -0.47376,-0.9576 -0.14112,-0.58464 -0.14112,-1.37088 v -5.30207 h -1.27008 q -0.1512,0 -0.24192,-0.16128 -0.0907,-0.16128 -0.0907,-0.52416 0,-0.19152 0.0202,-0.32256 0.0302,-0.13104 0.0706,-0.21168 0.0403,-0.0907 0.1008,-0.12096 0.0706,-0.0403 0.1512,-0.0403 h 1.26 v -2.15711 q 0,-0.0706 0.0302,-0.13104 0.0403,-0.0605 0.13104,-0.1008 0.1008,-0.0504 0.26208,-0.0706 0.16128,-0.0202 0.4032,-0.0202 0.252,0 0.41327,0.0202 0.16128,0.0202 0.252,0.0706 0.0907,0.0403 0.13104,0.1008 0.0403,0.0605 0.0403,0.13104 v 2.15711 h 2.32848 q 0.0806,0 0.14112,0.0403 0.0605,0.0302 0.1008,0.12096 0.0504,0.0806 0.0706,0.21168 0.0202,0.13104 0.0202,0.32256 0,0.36288 -0.0907,0.52416 -0.0907,0.16128 -0.24192,0.16128 h -2.32848 v 5.06015 q 0,0.93744 0.27216,1.42128 0.28224,0.47376 0.99792,0.47376 0.23184,0 0.41328,-0.0403 0.18144,-0.0504 0.32256,-0.1008 0.14112,-0.0504 0.24192,-0.0907 0.1008,-0.0504 0.18144,-0.0504 0.0504,0 0.0907,0.0302 0.0504,0.0202 0.0706,0.0907 0.0302,0.0706 0.0504,0.19152 0.0202,0.12096 0.0202,0.3024 z m 10.31182,-12.97294 q -0.9576,2.02608 -1.43136,4.16303 -0.46368,2.12688 -0.46368,4.284 0,2.16719 0.47376,4.29407 0.48384,2.12687 1.40112,4.17311 0.0504,0.12096 0.0504,0.2016 0.0101,0.0907 -0.0605,0.14112 -0.0706,0.0605 -0.22176,0.0806 -0.14112,0.0302 -0.39312,0.0302 -0.18144,0 -0.31248,-0.0101 -0.13104,-0.0101 -0.23184,-0.0403 -0.0907,-0.0302 -0.1512,-0.0706 -0.0605,-0.0403 -0.0907,-0.0907 -0.54432,-1.02816 -0.9576,-2.08656 -0.41328,-1.04831 -0.69551,-2.13695 -0.28224,-1.08864 -0.42336,-2.19744 -0.14112,-1.11888 -0.14112,-2.25791 0,-1.13904 0.1512,-2.24784 0.16128,-1.1088 0.44352,-2.19744 0.29231,-1.09871 0.70559,-2.15711 0.41328,-1.0584 0.92736,-2.09664 0.0101,-0.0403 0.0504,-0.0706 0.0504,-0.0302 0.13104,-0.0605 0.0806,-0.0302 0.22176,-0.0403 0.14112,-0.0202 0.36288,-0.0202 0.23184,0 0.37296,0.0302 0.14112,0.0302 0.22176,0.0806 0.0806,0.0504 0.0907,0.13104 0.0101,0.0806 -0.0302,0.17136 z m 10.00942,10.23118 q 0,0.91728 -0.34272,1.63296 -0.33264,0.71568 -0.93744,1.21968 -0.59471,0.49392 -1.41119,0.74592 -0.8064,0.252 -1.74384,0.252 -0.6552,0 -1.21968,-0.11088 -0.5544,-0.11088 -0.99791,-0.27216 -0.43344,-0.16128 -0.73584,-0.33264 -0.29232,-0.17136 -0.41328,-0.29232 -0.11088,-0.12096 -0.17136,-0.3024 -0.0504,-0.19152 -0.0504,-0.504 0,-0.22176 0.0202,-0.36288 0.0202,-0.1512 0.0605,-0.24192 0.0403,-0.0907 0.1008,-0.12096 0.0605,-0.0403 0.14112,-0.0403 0.14112,0 0.39312,0.17136 0.26208,0.17136 0.66527,0.37296 0.4032,0.2016 0.96768,0.38304 0.57456,0.17136 1.32048,0.17136 0.56448,0 1.02816,-0.1512 0.47376,-0.1512 0.8064,-0.42336 0.34272,-0.28224 0.52416,-0.68544 0.18144,-0.4032 0.18144,-0.91728 0,-0.5544 -0.252,-0.94752 -0.252,-0.39312 -0.66528,-0.68543 -0.41328,-0.3024 -0.94752,-0.54432 -0.52416,-0.252 -1.07856,-0.504 -0.5544,-0.26208 -1.07856,-0.57456 -0.52416,-0.31248 -0.93743,-0.73584 -0.41328,-0.42336 -0.67536,-0.98784 -0.252,-0.57456 -0.252,-1.37088 0,-0.81647 0.29232,-1.45151 0.3024,-0.64512 0.82655,-1.07856 0.53424,-0.43344 1.26,-0.6552 0.73584,-0.23184 1.58256,-0.23184 0.43344,0 0.86688,0.0806 0.44352,0.0706 0.82656,0.2016 0.39312,0.12096 0.69551,0.28224 0.3024,0.1512 0.39312,0.252 0.1008,0.0907 0.13104,0.1512 0.0302,0.0504 0.0504,0.14112 0.0202,0.0806 0.0302,0.2016 0.0101,0.12096 0.0101,0.31248 0,0.18144 -0.0202,0.32256 -0.0101,0.14112 -0.0403,0.24192 -0.0302,0.0907 -0.0907,0.14112 -0.0504,0.0403 -0.12096,0.0403 -0.11088,0 -0.3528,-0.14112 -0.23183,-0.14112 -0.57455,-0.31248 -0.34272,-0.18144 -0.81648,-0.32256 -0.46368,-0.1512 -1.04832,-0.1512 -0.54432,0 -0.94752,0.1512 -0.4032,0.14112 -0.66528,0.38304 -0.26208,0.24192 -0.39312,0.57456 -0.13104,0.33264 -0.13104,0.70559 0,0.54432 0.252,0.93744 0.252,0.39312 0.66528,0.69552 0.42336,0.3024 0.9576,0.5544 0.53424,0.252 1.08864,0.51408 0.5544,0.252 1.08864,0.56448 0.53423,0.3024 0.94751,0.72576 0.42336,0.41328 0.67536,0.98784 0.26208,0.56447 0.26208,1.34063 z m 6.16895,3.65904 -1.2096,3.33647 q -0.0605,0.16128 -0.31248,0.24192 -0.24192,0.0907 -0.74592,0.0907 -0.26208,0 -0.42336,-0.0302 -0.16128,-0.0202 -0.252,-0.0806 -0.0806,-0.0605 -0.0907,-0.16128 -0.0101,-0.1008 0.0504,-0.24192 l 1.24992,-3.15503 q -0.0907,-0.0403 -0.17136,-0.13104 -0.0806,-0.0907 -0.11088,-0.19152 l -3.23567,-8.66879 q -0.0806,-0.21168 -0.0806,-0.33264 0,-0.12096 0.0806,-0.19152 0.0806,-0.0706 0.26208,-0.0907 0.18144,-0.0302 0.48384,-0.0302 0.3024,0 0.47376,0.0202 0.17136,0.0101 0.27216,0.0504 0.1008,0.0403 0.14112,0.12096 0.0504,0.0706 0.1008,0.2016 l 2.59055,7.27775 h 0.0302 l 2.49984,-7.31807 q 0.0605,-0.19152 0.14112,-0.24192 0.0907,-0.0605 0.26208,-0.0806 0.17136,-0.0302 0.49391,-0.0302 0.28224,0 0.46368,0.0302 0.18144,0.0202 0.26208,0.0907 0.0907,0.0706 0.0907,0.19152 0,0.12096 -0.0605,0.3024 z m 13.02334,-0.252 q 0,0.0806 -0.0403,0.14112 -0.0403,0.0504 -0.13104,0.0907 -0.0907,0.0403 -0.252,0.0605 -0.16128,0.0202 -0.4032,0.0202 -0.252,0 -0.41328,-0.0202 -0.16128,-0.0202 -0.252,-0.0605 -0.0907,-0.0403 -0.13104,-0.0907 -0.0403,-0.0605 -0.0403,-0.14112 v -5.31215 q 0,-0.77616 -0.12096,-1.24992 -0.12096,-0.47376 -0.3528,-0.81648 -0.23184,-0.34272 -0.6048,-0.52416 -0.36288,-0.18144 -0.84672,-0.18144 -0.62496,0 -1.24992,0.44352 -0.62495,0.44352 -1.31039,1.30032 v 6.34031 q 0,0.0806 -0.0403,0.14112 -0.0403,0.0504 -0.13104,0.0907 -0.0907,0.0403 -0.252,0.0605 -0.16128,0.0202 -0.41328,0.0202 -0.24192,0 -0.4032,-0.0202 -0.16128,-0.0202 -0.26208,-0.0605 -0.0907,-0.0403 -0.13104,-0.0907 -0.0302,-0.0605 -0.0302,-0.14112 v -9.07199 q 0,-0.0806 0.0302,-0.13104 0.0302,-0.0605 0.12096,-0.1008 0.0907,-0.0504 0.23184,-0.0605 0.14112,-0.0202 0.37296,-0.0202 0.22176,0 0.36288,0.0202 0.1512,0.0101 0.23184,0.0605 0.0806,0.0403 0.11088,0.1008 0.0403,0.0504 0.0403,0.13104 v 1.19952 q 0.76608,-0.8568 1.52207,-1.24992 0.76608,-0.4032 1.54224,-0.4032 0.9072,0 1.52208,0.31248 0.62496,0.3024 1.008,0.81648 0.38304,0.51408 0.54432,1.2096 0.17136,0.68544 0.17136,1.65312 z m 7.55998,-0.66528 q 0,0.29232 -0.0403,0.46368 -0.0403,0.17136 -0.12096,0.252 -0.0806,0.0806 -0.24192,0.1512 -0.16128,0.0706 -0.37296,0.11088 -0.2016,0.0504 -0.43344,0.0806 -0.23184,0.0302 -0.46368,0.0302 -0.7056,0 -1.2096,-0.18144 -0.504,-0.19152 -0.82655,-0.56448 -0.32256,-0.38304 -0.47376,-0.9576 -0.14112,-0.58464 -0.14112,-1.37088 v -5.30207 h -1.27008 q -0.1512,0 -0.24192,-0.16128 -0.0907,-0.16128 -0.0907,-0.52416 0,-0.19152 0.0202,-0.32256 0.0302,-0.13104 0.0706,-0.21168 0.0403,-0.0907 0.1008,-0.12096 0.0706,-0.0403 0.1512,-0.0403 h 1.26 v -2.15711 q 0,-0.0706 0.0302,-0.13104 0.0403,-0.0605 0.13104,-0.1008 0.1008,-0.0504 0.26208,-0.0706 0.16128,-0.0202 0.40319,-0.0202 0.252,0 0.41328,0.0202 0.16128,0.0202 0.252,0.0706 0.0907,0.0403 0.13104,0.1008 0.0403,0.0605 0.0403,0.13104 v 2.15711 h 2.32848 q 0.0806,0 0.14112,0.0403 0.0605,0.0302 0.1008,0.12096 0.0504,0.0806 0.0706,0.21168 0.0202,0.13104 0.0202,0.32256 0,0.36288 -0.0907,0.52416 -0.0907,0.16128 -0.24192,0.16128 h -2.32848 v 5.06015 q 0,0.93744 0.27216,1.42128 0.28224,0.47376 0.99792,0.47376 0.23184,0 0.41328,-0.0403 0.18144,-0.0504 0.32256,-0.1008 0.14112,-0.0504 0.24192,-0.0907 0.1008,-0.0504 0.18144,-0.0504 0.0504,0 0.0907,0.0302 0.0504,0.0202 0.0706,0.0907 0.0302,0.0706 0.0504,0.19152 0.0202,0.12096 0.0202,0.3024 z m 10.00942,0.66528 q 0,0.0806 -0.0403,0.14112 -0.0403,0.0504 -0.13104,0.0907 -0.0907,0.0403 -0.252,0.0605 -0.16128,0.0202 -0.40319,0.0202 -0.252,0 -0.41328,-0.0202 -0.16128,-0.0202 -0.252,-0.0605 -0.0907,-0.0403 -0.13104,-0.0907 -0.0403,-0.0605 -0.0403,-0.14112 v -5.31215 q 0,-0.77616 -0.12096,-1.24992 -0.12096,-0.47376 -0.3528,-0.81648 -0.23184,-0.34272 -0.6048,-0.52416 -0.36288,-0.18144 -0.84672,-0.18144 -0.62496,0 -1.24992,0.44352 -0.62496,0.44352 -1.31039,1.30032 v 6.34031 q 0,0.0806 -0.0403,0.14112 -0.0403,0.0504 -0.13104,0.0907 -0.0907,0.0403 -0.252,0.0605 -0.16128,0.0202 -0.41328,0.0202 -0.24192,0 -0.4032,-0.0202 -0.16128,-0.0202 -0.26208,-0.0605 -0.0907,-0.0403 -0.13104,-0.0907 -0.0302,-0.0605 -0.0302,-0.14112 v -13.46686 q 0,-0.0806 0.0302,-0.14112 0.0403,-0.0605 0.13104,-0.1008 0.1008,-0.0403 0.26208,-0.0605 0.16128,-0.0202 0.4032,-0.0202 0.252,0 0.41328,0.0202 0.16128,0.0202 0.252,0.0605 0.0907,0.0403 0.13104,0.1008 0.0403,0.0605 0.0403,0.14112 v 5.43311 q 0.71567,-0.756 1.44143,-1.11888 0.72576,-0.37296 1.4616,-0.37296 0.9072,0 1.52208,0.31248 0.62496,0.3024 1.00799,0.81648 0.38304,0.51408 0.54432,1.2096 0.17136,0.68544 0.17136,1.6632 z m 10.7755,-4.92911 q 0,0.39311 -0.2016,0.56447 -0.19152,0.16128 -0.44352,0.16128 h -5.94719 q 0,0.756 0.1512,1.3608 0.1512,0.6048 0.504,1.03824 0.3528,0.43344 0.91728,0.66528 0.56448,0.23184 1.38095,0.23184 0.64512,0 1.14912,-0.1008 0.504,-0.11088 0.86688,-0.24192 0.37296,-0.13104 0.6048,-0.23184 0.24192,-0.11088 0.36288,-0.11088 0.0706,0 0.12096,0.0403 0.0605,0.0302 0.0907,0.1008 0.0302,0.0706 0.0403,0.2016 0.0202,0.12096 0.0202,0.3024 0,0.13104 -0.0101,0.23184 -0.0101,0.0907 -0.0302,0.17136 -0.0101,0.0706 -0.0504,0.13104 -0.0302,0.0605 -0.0907,0.12096 -0.0504,0.0504 -0.32256,0.18144 -0.27216,0.12096 -0.7056,0.24192 -0.43344,0.12096 -1.008,0.21168 -0.56448,0.1008 -1.20959,0.1008 -1.11888,0 -1.9656,-0.31248 -0.83664,-0.31248 -1.4112,-0.92736 -0.57456,-0.61488 -0.86688,-1.54224 -0.29232,-0.92736 -0.29232,-2.15712 0,-1.16927 0.3024,-2.09663 0.3024,-0.93744 0.86688,-1.58256 0.57456,-0.6552 1.38096,-0.99792 0.8064,-0.3528 1.80432,-0.3528 1.06847,0 1.81439,0.34272 0.756,0.34272 1.23984,0.92736 0.48384,0.57456 0.7056,1.3608 0.23184,0.77616 0.23184,1.6632 z m -1.67328,-0.49392 q 0.0302,-1.3104 -0.58464,-2.05632 -0.6048,-0.74592 -1.80431,-0.74592 -0.61488,0 -1.07856,0.23184 -0.46368,0.23184 -0.77616,0.61488 -0.31248,0.38304 -0.48384,0.89712 -0.17136,0.504 -0.19152,1.0584 z m 11.9851,-3.91104 q 0.3024,0 0.41328,0.14112 0.11088,0.13104 0.11088,0.39312 v 8.79983 q 0,0.0806 -0.0403,0.14112 -0.0403,0.0504 -0.14112,0.0907 -0.0907,0.0403 -0.252,0.0605 -0.16128,0.0202 -0.39312,0.0202 -0.252,0 -0.41328,-0.0202 -0.16128,-0.0202 -0.26208,-0.0605 -0.0907,-0.0403 -0.13104,-0.0907 -0.0403,-0.0605 -0.0403,-0.14112 v -7.95311 h -4.68719 v 5.06015 q 0,0.93744 0.27216,1.42128 0.28224,0.47376 0.99792,0.47376 0.23184,0 0.41328,-0.0403 0.18144,-0.0504 0.32256,-0.1008 0.14112,-0.0504 0.24192,-0.0907 0.1008,-0.0504 0.18144,-0.0504 0.0504,0 0.0907,0.0302 0.0504,0.0202 0.0706,0.0907 0.0302,0.0706 0.0504,0.19152 0.0202,0.12096 0.0202,0.3024 0,0.29232 -0.0403,0.46368 -0.0403,0.16128 -0.12096,0.252 -0.0806,0.0806 -0.24192,0.1512 -0.16128,0.0706 -0.37296,0.11088 -0.2016,0.0504 -0.43344,0.0806 -0.23184,0.0302 -0.46368,0.0302 -0.7056,0 -1.2096,-0.18144 -0.504,-0.19152 -0.82656,-0.56448 -0.32256,-0.38304 -0.47376,-0.9576 -0.14112,-0.58464 -0.14112,-1.37088 v -5.30207 h -1.27007 q -0.1512,0 -0.24192,-0.16128 -0.0907,-0.16128 -0.0907,-0.52416 0,-0.19152 0.0202,-0.32256 0.0302,-0.13104 0.0706,-0.21168 0.0403,-0.0907 0.1008,-0.12096 0.0706,-0.0403 0.1512,-0.0403 h 1.25999 v -2.15711 q 0,-0.0706 0.0302,-0.13104 0.0403,-0.0605 0.13104,-0.1008 0.1008,-0.0504 0.26208,-0.0706 0.16128,-0.0202 0.4032,-0.0202 0.252,0 0.41328,0.0202 0.16128,0.0202 0.252,0.0706 0.0907,0.0403 0.13104,0.1008 0.0403,0.0605 0.0403,0.13104 v 2.15711 z m 0.71568,-2.80223 q 0,0.58464 -0.22176,0.79632 -0.22176,0.21168 -0.81648,0.21168 -0.58464,0 -0.8064,-0.2016 -0.21168,-0.21168 -0.21168,-0.78624 0,-0.58464 0.22176,-0.79632 0.22176,-0.21168 0.81648,-0.21168 0.58464,0 0.79632,0.21168 0.22176,0.2016 0.22176,0.77616 z m -3.39696,2.80223 z m 12.81166,7.95311 q 0,0.17136 -0.0101,0.3024 -0.0101,0.12096 -0.0403,0.21168 -0.0202,0.0806 -0.0605,0.1512 -0.0302,0.0605 -0.16128,0.19152 -0.12096,0.12096 -0.42336,0.31248 -0.3024,0.18144 -0.68544,0.33264 -0.37296,0.14112 -0.81648,0.23184 -0.44351,0.0907 -0.91727,0.0907 -0.97776,0 -1.73376,-0.32256 -0.756,-0.32256 -1.27008,-0.93744 -0.504,-0.62496 -0.77616,-1.52208 -0.26208,-0.9072 -0.26208,-2.08656 0,-1.34063 0.32256,-2.29823 0.33264,-0.96768 0.89712,-1.58256 0.57456,-0.61488 1.34064,-0.9072 0.77616,-0.3024 1.67328,-0.3024 0.43344,0 0.83663,0.0806 0.41328,0.0806 0.756,0.21168 0.34272,0.13104 0.6048,0.3024 0.27216,0.17136 0.39312,0.29232 0.12096,0.12096 0.16128,0.19152 0.0504,0.0706 0.0806,0.17136 0.0302,0.0907 0.0403,0.21168 0.0101,0.12096 0.0101,0.3024 0,0.39312 -0.0907,0.5544 -0.0907,0.1512 -0.22176,0.1512 -0.1512,0 -0.3528,-0.16128 -0.19152,-0.17136 -0.49392,-0.37296 -0.3024,-0.2016 -0.73584,-0.36288 -0.42335,-0.17136 -1.00799,-0.17136 -1.19952,0 -1.84464,0.92736 -0.63504,0.91728 -0.63504,2.67119 0,0.87696 0.16128,1.54224 0.17136,0.6552 0.49392,1.09872 0.32256,0.44352 0.78624,0.66528 0.47376,0.21168 1.07856,0.21168 0.57456,0 1.00799,-0.18144 0.43344,-0.18144 0.74592,-0.39312 0.32256,-0.22176 0.53424,-0.39312 0.22176,-0.18144 0.34272,-0.18144 0.0706,0 0.12096,0.0403 0.0504,0.0403 0.0806,0.14112 0.0403,0.0907 0.0504,0.24192 0.0202,0.14112 0.0202,0.34272 z m 21.2486,1.37088 q 0,0.0806 -0.0403,0.14112 -0.0403,0.0605 -0.14112,0.1008 -0.1008,0.0302 -0.26208,0.0504 -0.1512,0.0302 -0.4032,0.0302 -0.23184,0 -0.4032,-0.0302 -0.16128,-0.0202 -0.26208,-0.0504 -0.0907,-0.0403 -0.13104,-0.1008 -0.0403,-0.0605 -0.0403,-0.14112 v -11.36014 h -0.0202 l -4.64687,11.41054 q -0.0302,0.0706 -0.0907,0.12096 -0.0504,0.0504 -0.16128,0.0907 -0.1008,0.0302 -0.252,0.0403 -0.14112,0.0202 -0.34272,0.0202 -0.21168,0 -0.36288,-0.0202 -0.1512,-0.0202 -0.252,-0.0504 -0.1008,-0.0403 -0.16128,-0.0907 -0.0504,-0.0504 -0.0706,-0.11088 l -4.44527,-11.41054 h -0.0101 v 11.36014 q 0,0.0806 -0.0403,0.14112 -0.0403,0.0605 -0.14112,0.1008 -0.1008,0.0302 -0.26208,0.0504 -0.16128,0.0302 -0.41328,0.0302 -0.24191,0 -0.40319,-0.0302 -0.16128,-0.0202 -0.26208,-0.0504 -0.0907,-0.0403 -0.13104,-0.1008 -0.0302,-0.0605 -0.0302,-0.14112 v -11.99518 q 0,-0.42336 0.22176,-0.6048 0.22176,-0.18144 0.49391,-0.18144 h 1.04832 q 0.32256,0 0.56448,0.0605 0.24192,0.0605 0.42336,0.19152 0.18144,0.13104 0.3024,0.33264 0.12096,0.2016 0.21168,0.47376 l 3.77999,9.44494 h 0.0504 l 3.9312,-9.4147 q 0.11088,-0.3024 0.24191,-0.51408 0.13104,-0.21168 0.28224,-0.33264 0.16128,-0.13104 0.3528,-0.18144 0.19152,-0.0605 0.44352,-0.0605 h 1.09872 q 0.1512,0 0.28224,0.0504 0.14112,0.0403 0.23184,0.14112 0.1008,0.0907 0.16128,0.24192 0.0605,0.14112 0.0605,0.3528 z m 10.11023,0.0202 q 0,0.12096 -0.0806,0.18144 -0.0806,0.0605 -0.22176,0.0907 -0.14112,0.0302 -0.41328,0.0302 -0.26208,0 -0.42336,-0.0302 -0.1512,-0.0302 -0.22176,-0.0907 -0.0706,-0.0605 -0.0706,-0.18144 v -0.9072 q -0.59472,0.63504 -1.33056,0.98784 -0.72575,0.3528 -1.54223,0.3528 -0.71568,0 -1.30032,-0.19152 -0.57456,-0.18144 -0.98784,-0.53424 -0.4032,-0.3528 -0.63504,-0.86688 -0.22176,-0.51408 -0.22176,-1.16928 0,-0.76608 0.31248,-1.33056 0.31248,-0.56448 0.89712,-0.93744 0.58464,-0.37295 1.43136,-0.55439 0.84672,-0.19152 1.90511,-0.19152 h 1.24992 v -0.7056 q 0,-0.52416 -0.11088,-0.92736 -0.11088,-0.4032 -0.36288,-0.66528 -0.24192,-0.27216 -0.63504,-0.4032 -0.39312,-0.14112 -0.96767,-0.14112 -0.61488,0 -1.1088,0.1512 -0.48384,0.14112 -0.8568,0.32256 -0.36288,0.17136 -0.61488,0.32256 -0.24192,0.14112 -0.36288,0.14112 -0.0806,0 -0.14112,-0.0403 -0.0605,-0.0403 -0.11088,-0.12096 -0.0403,-0.0806 -0.0605,-0.2016 -0.0202,-0.13104 -0.0202,-0.28224 0,-0.252 0.0302,-0.39312 0.0403,-0.1512 0.17136,-0.28224 0.14112,-0.13104 0.47376,-0.3024 0.33264,-0.18144 0.76608,-0.32256 0.43344,-0.1512 0.94752,-0.24192 0.51408,-0.1008 1.03824,-0.1008 0.97775,0 1.66319,0.22176 0.68544,0.22176 1.1088,0.6552 0.42336,0.42336 0.61488,1.0584 0.19152,0.63504 0.19152,1.48176 z m -1.65312,-4.14288 h -1.42128 q -0.68543,0 -1.18943,0.12096 -0.504,0.11088 -0.83664,0.34272 -0.33264,0.22176 -0.49392,0.54432 -0.1512,0.31248 -0.1512,0.72576 0,0.7056 0.44352,1.12896 0.4536,0.41328 1.26,0.41328 0.6552,0 1.20959,-0.33264 0.56448,-0.33264 1.17936,-1.01808 z m 18.16412,4.1328 q 0,0.0806 -0.0403,0.14112 -0.0403,0.0504 -0.13104,0.0907 -0.0907,0.0403 -0.25199,0.0605 -0.16128,0.0202 -0.4032,0.0202 -0.252,0 -0.41328,-0.0202 -0.16128,-0.0202 -0.26208,-0.0605 -0.0907,-0.0403 -0.13104,-0.0907 -0.0403,-0.0605 -0.0403,-0.14112 v -5.51375 q 0,-0.57456 -0.1008,-1.04832 -0.1008,-0.47376 -0.32256,-0.81648 -0.22176,-0.34272 -0.56448,-0.52416 -0.34272,-0.18144 -0.8064,-0.18144 -0.57456,0 -1.1592,0.44352 -0.57456,0.44352 -1.27007,1.30032 v 6.34031 q 0,0.0806 -0.0403,0.14112 -0.0403,0.0504 -0.14112,0.0907 -0.0907,0.0403 -0.252,0.0605 -0.16128,0.0202 -0.4032,0.0202 -0.23184,0 -0.4032,-0.0202 -0.16128,-0.0202 -0.26208,-0.0605 -0.0907,-0.0403 -0.13104,-0.0907 -0.0302,-0.0605 -0.0302,-0.14112 v -5.51375 q 0,-0.57456 -0.11088,-1.04832 -0.11088,-0.47376 -0.33264,-0.81648 -0.22176,-0.34272 -0.56448,-0.52416 -0.33264,-0.18144 -0.79632,-0.18144 -0.57456,0 -1.1592,0.44352 -0.58463,0.44352 -1.27007,1.30032 v 6.34031 q 0,0.0806 -0.0403,0.14112 -0.0403,0.0504 -0.13104,0.0907 -0.0907,0.0403 -0.252,0.0605 -0.16128,0.0202 -0.41328,0.0202 -0.24192,0 -0.4032,-0.0202 -0.16128,-0.0202 -0.26208,-0.0605 -0.0907,-0.0403 -0.13104,-0.0907 -0.0302,-0.0605 -0.0302,-0.14112 v -9.07199 q 0,-0.0806 0.0302,-0.13104 0.0302,-0.0605 0.12096,-0.1008 0.0907,-0.0504 0.23184,-0.0605 0.14112,-0.0202 0.37296,-0.0202 0.22176,0 0.36288,0.0202 0.1512,0.0101 0.23184,0.0605 0.0806,0.0403 0.11088,0.1008 0.0403,0.0504 0.0403,0.13104 v 1.19952 q 0.76608,-0.8568 1.48175,-1.24992 0.72576,-0.4032 1.4616,-0.4032 0.56448,0 1.008,0.13104 0.4536,0.13104 0.79632,0.37296 0.34272,0.23184 0.58464,0.56448 0.24192,0.32256 0.4032,0.72576 0.4536,-0.49392 0.85679,-0.83664 0.41328,-0.34272 0.78624,-0.5544 0.38304,-0.21168 0.73584,-0.3024 0.36288,-0.1008 0.72576,-0.1008 0.87696,0 1.47168,0.31248 0.59472,0.3024 0.9576,0.81648 0.37295,0.51408 0.52415,1.2096 0.16128,0.68544 0.16128,1.45152 z m 16.49085,0 q 0,0.0806 -0.0403,0.14112 -0.0403,0.0504 -0.13104,0.0907 -0.0907,0.0403 -0.252,0.0605 -0.16128,0.0202 -0.4032,0.0202 -0.252,0 -0.41328,-0.0202 -0.16128,-0.0202 -0.26208,-0.0605 -0.0907,-0.0403 -0.13104,-0.0907 -0.0403,-0.0605 -0.0403,-0.14112 v -5.51375 q 0,-0.57456 -0.1008,-1.04832 -0.1008,-0.47376 -0.32256,-0.81648 -0.22176,-0.34272 -0.56448,-0.52416 -0.34272,-0.18144 -0.80639,-0.18144 -0.57456,0 -1.1592,0.44352 -0.57456,0.44352 -1.27008,1.30032 v 6.34031 q 0,0.0806 -0.0403,0.14112 -0.0403,0.0504 -0.14112,0.0907 -0.0907,0.0403 -0.252,0.0605 -0.16128,0.0202 -0.4032,0.0202 -0.23184,0 -0.4032,-0.0202 -0.16128,-0.0202 -0.26208,-0.0605 -0.0907,-0.0403 -0.13104,-0.0907 -0.0302,-0.0605 -0.0302,-0.14112 v -5.51375 q 0,-0.57456 -0.11088,-1.04832 -0.11088,-0.47376 -0.33264,-0.81648 -0.22176,-0.34272 -0.56447,-0.52416 -0.33264,-0.18144 -0.79632,-0.18144 -0.57456,0 -1.1592,0.44352 -0.58464,0.44352 -1.27008,1.30032 v 6.34031 q 0,0.0806 -0.0403,0.14112 -0.0403,0.0504 -0.13104,0.0907 -0.0907,0.0403 -0.252,0.0605 -0.16128,0.0202 -0.41328,0.0202 -0.24192,0 -0.4032,-0.0202 -0.16128,-0.0202 -0.26208,-0.0605 -0.0907,-0.0403 -0.13104,-0.0907 -0.0302,-0.0605 -0.0302,-0.14112 v -9.07199 q 0,-0.0806 0.0302,-0.13104 0.0302,-0.0605 0.12096,-0.1008 0.0907,-0.0504 0.23184,-0.0605 0.14112,-0.0202 0.37296,-0.0202 0.22176,0 0.36288,0.0202 0.1512,0.0101 0.23184,0.0605 0.0806,0.0403 0.11088,0.1008 0.0403,0.0504 0.0403,0.13104 v 1.19952 q 0.76608,-0.8568 1.48176,-1.24992 0.72576,-0.4032 1.4616,-0.4032 0.56448,0 1.00799,0.13104 0.4536,0.13104 0.79632,0.37296 0.34272,0.23184 0.58464,0.56448 0.24192,0.32256 0.4032,0.72576 0.4536,-0.49392 0.8568,-0.83664 0.41328,-0.34272 0.78624,-0.5544 0.38304,-0.21168 0.73584,-0.3024 0.36288,-0.1008 0.72575,-0.1008 0.87696,0 1.47168,0.31248 0.59472,0.3024 0.9576,0.81648 0.37296,0.51408 0.52416,1.2096 0.16128,0.68544 0.16128,1.45152 z m 11.47101,-4.6368 q 0,1.1088 -0.29232,2.04624 -0.29232,0.92736 -0.87695,1.60272 -0.57456,0.67536 -1.45152,1.0584 -0.86688,0.37296 -2.016,0.37296 -1.11888,0 -1.95551,-0.33264 -0.82656,-0.33264 -1.38096,-0.96768 -0.5544,-0.63504 -0.82656,-1.54224 -0.27216,-0.9072 -0.27216,-2.05632 0,-1.10879 0.28224,-2.03615 0.29232,-0.93744 0.86688,-1.6128 0.58464,-0.67536 1.45152,-1.04832 0.86687,-0.37296 2.02607,-0.37296 1.11888,0 1.94544,0.33264 0.83664,0.33264 1.39104,0.96768 0.55439,0.63504 0.82655,1.54224 0.28224,0.9072 0.28224,2.04623 z m -1.75391,0.11088 q 0,-0.73583 -0.14112,-1.39103 -0.13104,-0.6552 -0.44352,-1.14912 -0.31248,-0.49392 -0.84672,-0.77616 -0.53424,-0.29232 -1.33056,-0.29232 -0.73584,0 -1.27008,0.26208 -0.52415,0.26208 -0.86687,0.74592 -0.34272,0.47376 -0.51408,1.12896 -0.16128,0.6552 -0.16128,1.43135 0,0.74592 0.13104,1.40112 0.14112,0.6552 0.4536,1.14912 0.32256,0.48384 0.85679,0.77616 0.53424,0.28224 1.33056,0.28224 0.72576,0 1.26,-0.26208 0.53424,-0.26208 0.87696,-0.73584 0.34272,-0.47376 0.504,-1.12896 0.16128,-0.6552 0.16128,-1.44144 z m 11.7835,-4.13279 q 0,0.3528 -0.1008,0.51408 -0.0907,0.1512 -0.24192,0.1512 h -1.30032 q 0.3528,0.36288 0.49392,0.8064 0.14112,0.43344 0.14112,0.9072 0,0.78624 -0.252,1.39104 -0.252,0.60479 -0.72576,1.02815 -0.46368,0.41328 -1.1088,0.63504 -0.64511,0.22176 -1.43135,0.22176 -0.5544,0 -1.0584,-0.14112 -0.49392,-0.1512 -0.76608,-0.37296 -0.18144,0.18144 -0.3024,0.41328 -0.11088,0.23184 -0.11088,0.53424 0,0.3528 0.32256,0.58464 0.33264,0.23184 0.87696,0.252 l 2.36879,0.1008 q 0.67536,0.0202 1.23984,0.19152 0.56448,0.16128 0.97776,0.47376 0.41328,0.3024 0.64512,0.756 0.23184,0.44352 0.23184,1.03823 0,0.62496 -0.26208,1.18944 -0.26208,0.56448 -0.8064,0.98784 -0.53424,0.43344 -1.37088,0.67536 -0.83664,0.252 -1.97567,0.252 -1.09872,0 -1.87488,-0.19152 -0.76608,-0.18144 -1.26,-0.504 -0.49392,-0.32256 -0.71568,-0.77616 -0.22176,-0.44352 -0.22176,-0.96768 0,-0.33264 0.0806,-0.64512 0.0806,-0.31247 0.24192,-0.59471 0.17136,-0.28224 0.41328,-0.53424 0.252,-0.26208 0.57456,-0.51408 -0.49392,-0.252 -0.73584,-0.63504 -0.23184,-0.38304 -0.23184,-0.82656 0,-0.61488 0.252,-1.09872 0.252,-0.48384 0.62496,-0.86688 -0.31248,-0.37296 -0.49392,-0.83663 -0.18144,-0.47376 -0.18144,-1.13904 0,-0.77616 0.26208,-1.39104 0.26208,-0.61488 0.72576,-1.03824 0.46368,-0.42336 1.1088,-0.64512 0.6552,-0.23184 1.42128,-0.23184 0.41328,0 0.76608,0.0504 0.36287,0.0403 0.67535,0.12096 h 2.74176 q 0.17136,0 0.252,0.17136 0.0907,0.16128 0.0907,0.504 z m -2.60064,2.38896 q 0,-0.92736 -0.51408,-1.44144 -0.504,-0.52416 -1.44143,-0.52416 -0.48384,0 -0.84672,0.16128 -0.3528,0.16128 -0.59472,0.44352 -0.23184,0.28224 -0.3528,0.6552 -0.11088,0.36288 -0.11088,0.76608 0,0.89712 0.504,1.4112 0.51408,0.51407 1.43136,0.51407 0.49392,0 0.85679,-0.1512 0.36288,-0.16128 0.59472,-0.43343 0.24192,-0.28224 0.3528,-0.64512 0.12096,-0.36288 0.12096,-0.756 z m 0.83664,7.18702 q 0,-0.58463 -0.48384,-0.89711 -0.47376,-0.32256 -1.29024,-0.34272 l -2.34863,-0.0806 q -0.32256,0.252 -0.53424,0.48384 -0.2016,0.22176 -0.32256,0.42336 -0.12096,0.21167 -0.17136,0.41327 -0.0403,0.2016 -0.0403,0.41328 0,0.6552 0.66528,0.98784 0.66528,0.34272 1.85472,0.34272 0.75599,0 1.25999,-0.1512 0.51408,-0.14112 0.82656,-0.38304 0.31248,-0.24192 0.44352,-0.5544 0.14112,-0.31248 0.14112,-0.6552 z m 9.20302,-9.39454 q 0,0.22176 -0.0101,0.37296 -0.0101,0.1512 -0.0403,0.24192 -0.0302,0.0806 -0.0806,0.13104 -0.0403,0.0403 -0.12096,0.0403 -0.0806,0 -0.20159,-0.0403 -0.11088,-0.0504 -0.26208,-0.0907 -0.14112,-0.0504 -0.32256,-0.0907 -0.18144,-0.0403 -0.39312,-0.0403 -0.252,0 -0.49392,0.1008 -0.24192,0.1008 -0.51408,0.33264 -0.26208,0.23184 -0.5544,0.61488 -0.29232,0.38304 -0.64512,0.93744 v 5.96735 q 0,0.0806 -0.0403,0.14112 -0.0403,0.0504 -0.13104,0.0907 -0.0907,0.0403 -0.252,0.0605 -0.16128,0.0202 -0.41328,0.0202 -0.24192,0 -0.4032,-0.0202 -0.16128,-0.0202 -0.26208,-0.0605 -0.0907,-0.0403 -0.13104,-0.0907 -0.0302,-0.0605 -0.0302,-0.14112 v -9.07199 q 0,-0.0806 0.0302,-0.13104 0.0302,-0.0605 0.12096,-0.1008 0.0907,-0.0504 0.23184,-0.0605 0.14112,-0.0202 0.37296,-0.0202 0.22176,0 0.36288,0.0202 0.1512,0.0101 0.23184,0.0605 0.0806,0.0403 0.11088,0.1008 0.0403,0.0504 0.0403,0.13104 v 1.32048 q 0.37296,-0.54432 0.69552,-0.88704 0.33264,-0.34272 0.62496,-0.53424 0.29232,-0.2016 0.57456,-0.27216 0.29232,-0.0806 0.58464,-0.0806 0.13104,0 0.29232,0.0202 0.17136,0.0101 0.3528,0.0504 0.18144,0.0403 0.32256,0.0907 0.15119,0.0504 0.21167,0.1008 0.0605,0.0504 0.0806,0.1008 0.0202,0.0403 0.0302,0.11088 0.0202,0.0706 0.0202,0.21168 0.0101,0.13104 0.0101,0.36288 z m 8.3059,8.48735 q 0,0.12096 -0.0806,0.18144 -0.0806,0.0605 -0.22176,0.0907 -0.14112,0.0302 -0.41327,0.0302 -0.26208,0 -0.42336,-0.0302 -0.1512,-0.0302 -0.22176,-0.0907 -0.0706,-0.0605 -0.0706,-0.18144 v -0.9072 q -0.59472,0.63504 -1.33056,0.98784 -0.72576,0.3528 -1.54224,0.3528 -0.71568,0 -1.30032,-0.19152 -0.57455,-0.18144 -0.98783,-0.53424 -0.4032,-0.3528 -0.63504,-0.86688 -0.22176,-0.51408 -0.22176,-1.16928 0,-0.76608 0.31248,-1.33056 0.31248,-0.56448 0.89712,-0.93744 0.58463,-0.37295 1.43135,-0.55439 0.84672,-0.19152 1.90512,-0.19152 h 1.24992 v -0.7056 q 0,-0.52416 -0.11088,-0.92736 -0.11088,-0.4032 -0.36288,-0.66528 -0.24192,-0.27216 -0.63504,-0.4032 -0.39312,-0.14112 -0.96768,-0.14112 -0.61488,0 -1.1088,0.1512 -0.48384,0.14112 -0.8568,0.32256 -0.36287,0.17136 -0.61487,0.32256 -0.24192,0.14112 -0.36288,0.14112 -0.0806,0 -0.14112,-0.0403 -0.0605,-0.0403 -0.11088,-0.12096 -0.0403,-0.0806 -0.0605,-0.2016 -0.0202,-0.13104 -0.0202,-0.28224 0,-0.252 0.0302,-0.39312 0.0403,-0.1512 0.17136,-0.28224 0.14112,-0.13104 0.47376,-0.3024 0.33264,-0.18144 0.76607,-0.32256 0.43344,-0.1512 0.94752,-0.24192 0.51408,-0.1008 1.03824,-0.1008 0.97776,0 1.6632,0.22176 0.68544,0.22176 1.1088,0.6552 0.42335,0.42336 0.61487,1.0584 0.19152,0.63504 0.19152,1.48176 z m -1.65311,-4.14288 h -1.42128 q -0.68544,0 -1.18944,0.12096 -0.504,0.11088 -0.83664,0.34272 -0.33264,0.22176 -0.49392,0.54432 -0.15119,0.31248 -0.15119,0.72576 0,0.7056 0.44351,1.12896 0.4536,0.41328 1.26,0.41328 0.6552,0 1.2096,-0.33264 0.56448,-0.33264 1.17936,-1.01808 z m 18.16412,4.1328 q 0,0.0806 -0.0403,0.14112 -0.0403,0.0504 -0.13104,0.0907 -0.0907,0.0403 -0.252,0.0605 -0.16128,0.0202 -0.4032,0.0202 -0.252,0 -0.41328,-0.0202 -0.16128,-0.0202 -0.26208,-0.0605 -0.0907,-0.0403 -0.13104,-0.0907 -0.0403,-0.0605 -0.0403,-0.14112 v -5.51375 q 0,-0.57456 -0.1008,-1.04832 -0.1008,-0.47376 -0.32256,-0.81648 -0.22176,-0.34272 -0.56448,-0.52416 -0.34271,-0.18144 -0.80639,-0.18144 -0.57456,0 -1.1592,0.44352 -0.57456,0.44352 -1.27008,1.30032 v 6.34031 q 0,0.0806 -0.0403,0.14112 -0.0403,0.0504 -0.14112,0.0907 -0.0907,0.0403 -0.252,0.0605 -0.16128,0.0202 -0.4032,0.0202 -0.23184,0 -0.4032,-0.0202 -0.16128,-0.0202 -0.26208,-0.0605 -0.0907,-0.0403 -0.13104,-0.0907 -0.0302,-0.0605 -0.0302,-0.14112 v -5.51375 q 0,-0.57456 -0.11088,-1.04832 -0.11088,-0.47376 -0.33264,-0.81648 -0.22175,-0.34272 -0.56447,-0.52416 -0.33264,-0.18144 -0.79632,-0.18144 -0.57456,0 -1.1592,0.44352 -0.58464,0.44352 -1.27008,1.30032 v 6.34031 q 0,0.0806 -0.0403,0.14112 -0.0403,0.0504 -0.13104,0.0907 -0.0907,0.0403 -0.252,0.0605 -0.16128,0.0202 -0.41328,0.0202 -0.24192,0 -0.4032,-0.0202 -0.16128,-0.0202 -0.26207,-0.0605 -0.0907,-0.0403 -0.13104,-0.0907 -0.0302,-0.0605 -0.0302,-0.14112 v -9.07199 q 0,-0.0806 0.0302,-0.13104 0.0302,-0.0605 0.12096,-0.1008 0.0907,-0.0504 0.23183,-0.0605 0.14112,-0.0202 0.37296,-0.0202 0.22176,0 0.36288,0.0202 0.1512,0.0101 0.23184,0.0605 0.0806,0.0403 0.11088,0.1008 0.0403,0.0504 0.0403,0.13104 v 1.19952 q 0.76608,-0.8568 1.48176,-1.24992 0.72576,-0.4032 1.4616,-0.4032 0.56448,0 1.00799,0.13104 0.4536,0.13104 0.79632,0.37296 0.34272,0.23184 0.58464,0.56448 0.24192,0.32256 0.4032,0.72576 0.4536,-0.49392 0.8568,-0.83664 0.41328,-0.34272 0.78624,-0.5544 0.38304,-0.21168 0.73584,-0.3024 0.36288,-0.1008 0.72576,-0.1008 0.87695,0 1.47167,0.31248 0.59472,0.3024 0.9576,0.81648 0.37296,0.51408 0.52416,1.2096 0.16128,0.68544 0.16128,1.45152 z m 8.72927,-2.4696 q 0,0.69552 -0.26207,1.23984 -0.252,0.54432 -0.72576,0.91728 -0.47376,0.37296 -1.12896,0.56448 -0.6552,0.19152 -1.44144,0.19152 -0.48384,0 -0.92736,-0.0806 -0.43344,-0.0706 -0.78624,-0.18144 -0.34271,-0.12096 -0.58463,-0.24192 -0.24192,-0.13104 -0.3528,-0.23184 -0.11088,-0.1008 -0.16128,-0.28224 -0.0504,-0.18144 -0.0504,-0.49392 0,-0.19152 0.0202,-0.32256 0.0202,-0.13104 0.0504,-0.21168 0.0302,-0.0806 0.0806,-0.11088 0.0605,-0.0403 0.13104,-0.0403 0.11088,0 0.32256,0.14112 0.22176,0.13104 0.53423,0.29232 0.32256,0.16128 0.756,0.3024 0.43344,0.13104 0.99792,0.13104 0.42336,0 0.76608,-0.0907 0.34272,-0.0907 0.59472,-0.26208 0.252,-0.18144 0.38304,-0.4536 0.14112,-0.27216 0.14112,-0.64512 0,-0.38304 -0.2016,-0.64512 -0.19152,-0.26208 -0.51408,-0.46368 -0.32256,-0.2016 -0.72576,-0.3528 -0.4032,-0.16128 -0.83664,-0.33264 -0.42336,-0.17136 -0.83664,-0.38304 -0.4032,-0.22175 -0.72576,-0.53423 -0.32255,-0.31248 -0.52415,-0.74592 -0.19152,-0.43344 -0.19152,-1.03824 0,-0.53424 0.2016,-1.01808 0.21168,-0.49392 0.62495,-0.8568 0.41328,-0.37296 1.02816,-0.59472 0.62496,-0.22176 1.45152,-0.22176 0.36288,0 0.72576,0.0605 0.36288,0.0605 0.6552,0.1512 0.29232,0.0907 0.49392,0.2016 0.21168,0.1008 0.31248,0.18144 0.11088,0.0806 0.14112,0.14112 0.0403,0.0605 0.0504,0.14112 0.0202,0.0706 0.0302,0.18144 0.0202,0.11088 0.0202,0.27216 0,0.17136 -0.0202,0.3024 -0.0101,0.12096 -0.0504,0.2016 -0.0302,0.0806 -0.0806,0.12096 -0.0504,0.0302 -0.11088,0.0302 -0.0907,0 -0.26208,-0.11088 -0.17136,-0.11088 -0.44352,-0.23184 -0.27216,-0.13104 -0.64512,-0.24192 -0.36288,-0.11088 -0.83664,-0.11088 -0.42336,0 -0.74592,0.1008 -0.32256,0.0907 -0.53424,0.27216 -0.2016,0.17136 -0.31248,0.41328 -0.1008,0.24192 -0.1008,0.52416 0,0.39312 0.2016,0.66528 0.2016,0.26208 0.52416,0.46368 0.32256,0.2016 0.73584,0.36288 0.41328,0.16128 0.83664,0.33264 0.43344,0.17136 0.84672,0.38304 0.42336,0.21167 0.74592,0.51407 0.32256,0.3024 0.51407,0.72576 0.2016,0.42336 0.2016,1.008 z m 5.7456,-2.69135 q 0,1.13903 -0.14112,2.25791 -0.14112,1.1088 -0.42336,2.19744 -0.28224,1.08864 -0.69552,2.13695 -0.4032,1.0584 -0.94752,2.08656 -0.0302,0.0504 -0.0907,0.0907 -0.0605,0.0403 -0.16128,0.0706 -0.0907,0.0302 -0.22176,0.0403 -0.13104,0.0101 -0.31248,0.0101 -0.26208,0 -0.41328,-0.0302 -0.14112,-0.0202 -0.21168,-0.0806 -0.0605,-0.0504 -0.0605,-0.14112 0.0101,-0.0806 0.0605,-0.2016 0.92736,-2.03616 1.40112,-4.16303 0.47376,-2.13696 0.47376,-4.30415 0,-2.15712 -0.47376,-4.284 -0.47376,-2.13695 -1.42128,-4.16303 -0.0403,-0.0907 -0.0302,-0.17136 0.0101,-0.0806 0.0907,-0.13104 0.0806,-0.0504 0.22176,-0.0806 0.14112,-0.0302 0.37296,-0.0302 0.21168,0 0.3528,0.0202 0.14112,0.0101 0.22176,0.0403 0.0907,0.0302 0.13104,0.0605 0.0403,0.0302 0.0605,0.0706 1.03824,2.0664 1.62288,4.25375 0.59472,2.17728 0.59472,4.44528 z"
         id="text2419"
         style="-inkscape-font-specification:'Calibri, Normal';stroke-width:4.91339;stroke-linecap:round;stroke-linejoin:round;stroke-dashoffset:10.8171"
         transform="matrix(0.26458333,0,0,0.26458333,-35.99891,-14.855293)"
         aria-label="Test (Synthetic Mammograms)" /><path
         d="m -566.65189,623.63326 q 0,1.69344 -0.43344,2.96352 -0.43344,1.25999 -1.27008,2.09663 -0.82656,0.82656 -2.03616,1.23984 -1.20959,0.41328 -2.88287,0.41328 h -2.76192 q -0.23183,0 -0.44351,-0.1512 -0.2016,-0.16128 -0.2016,-0.5544 v -11.6323 q 0,-0.39312 0.2016,-0.54432 0.21168,-0.16128 0.44351,-0.16128 h 2.95344 q 1.69344,0 2.86271,0.44352 1.16928,0.43344 1.95552,1.26 0.79632,0.81648 1.19952,1.98576 0.41328,1.16927 0.41328,2.64095 z m -1.82448,0.0706 q 0,-1.0584 -0.26208,-1.96559 -0.26208,-0.91728 -0.82656,-1.58256 -0.5544,-0.66528 -1.41119,-1.03824 -0.8568,-0.37296 -2.20752,-0.37296 h -1.764 v 10.15054 h 1.78416 q 1.24992,0 2.10672,-0.31248 0.85679,-0.31248 1.43135,-0.9576 0.57456,-0.64511 0.8568,-1.61279 0.29232,-0.97776 0.29232,-2.30832 z m 12.04558,1.4616 q 0,0.39312 -0.2016,0.56448 -0.19152,0.16128 -0.44352,0.16128 h -5.94719 q 0,0.756 0.1512,1.36079 0.1512,0.6048 0.504,1.03824 0.3528,0.43344 0.91728,0.66528 0.56448,0.23184 1.38095,0.23184 0.64512,0 1.14912,-0.1008 0.504,-0.11088 0.86688,-0.24192 0.37296,-0.13104 0.6048,-0.23184 0.24192,-0.11088 0.36288,-0.11088 0.0706,0 0.12096,0.0403 0.0605,0.0302 0.0907,0.1008 0.0302,0.0706 0.0403,0.2016 0.0202,0.12096 0.0202,0.3024 0,0.13104 -0.0101,0.23184 -0.0101,0.0907 -0.0302,0.17136 -0.0101,0.0706 -0.0504,0.13104 -0.0302,0.0605 -0.0907,0.12096 -0.0504,0.0504 -0.32256,0.18144 -0.27216,0.12096 -0.7056,0.24192 -0.43344,0.12096 -1.008,0.21168 -0.56448,0.1008 -1.20959,0.1008 -1.11888,0 -1.9656,-0.31248 -0.83664,-0.31248 -1.4112,-0.92736 -0.57456,-0.61488 -0.86688,-1.54224 -0.29232,-0.92735 -0.29232,-2.15711 0,-1.16928 0.3024,-2.09664 0.3024,-0.93744 0.86688,-1.58256 0.57456,-0.65519 1.38096,-0.99791 0.8064,-0.3528 1.80432,-0.3528 1.06847,0 1.81439,0.34272 0.756,0.34272 1.23984,0.92735 0.48384,0.57456 0.7056,1.3608 0.23184,0.77616 0.23184,1.6632 z m -1.67328,-0.49392 q 0.0302,-1.3104 -0.58464,-2.05632 -0.6048,-0.74592 -1.80431,-0.74592 -0.61488,0 -1.07856,0.23184 -0.46368,0.23184 -0.77616,0.61488 -0.31248,0.38304 -0.48384,0.89712 -0.17136,0.504 -0.19152,1.0584 z m 12.01534,5.42303 q 0,0.0806 -0.0403,0.14112 -0.0403,0.0504 -0.13104,0.0907 -0.0907,0.0403 -0.252,0.0605 -0.16128,0.0202 -0.4032,0.0202 -0.252,0 -0.41328,-0.0202 -0.16128,-0.0202 -0.252,-0.0605 -0.0907,-0.0403 -0.13104,-0.0907 -0.0403,-0.0605 -0.0403,-0.14112 v -5.31215 q 0,-0.77616 -0.12096,-1.24992 -0.12096,-0.47376 -0.3528,-0.81648 -0.23184,-0.34272 -0.6048,-0.52416 -0.36288,-0.18144 -0.84671,-0.18144 -0.62496,0 -1.24992,0.44352 -0.62496,0.44352 -1.3104,1.30032 v 6.34031 q 0,0.0806 -0.0403,0.14112 -0.0403,0.0504 -0.13104,0.0907 -0.0907,0.0403 -0.252,0.0605 -0.16128,0.0202 -0.41328,0.0202 -0.24192,0 -0.4032,-0.0202 -0.16128,-0.0202 -0.26208,-0.0605 -0.0907,-0.0403 -0.13104,-0.0907 -0.0302,-0.0605 -0.0302,-0.14112 v -9.07198 q 0,-0.0806 0.0302,-0.13104 0.0302,-0.0605 0.12096,-0.1008 0.0907,-0.0504 0.23184,-0.0605 0.14112,-0.0202 0.37296,-0.0202 0.22176,0 0.36288,0.0202 0.1512,0.0101 0.23184,0.0605 0.0806,0.0403 0.11088,0.1008 0.0403,0.0504 0.0403,0.13104 v 1.19951 q 0.76608,-0.85679 1.52208,-1.24991 0.76608,-0.4032 1.54223,-0.4032 0.9072,0 1.52208,0.31248 0.62496,0.3024 1.008,0.81648 0.38304,0.51407 0.54432,1.20959 0.17136,0.68544 0.17136,1.65312 z m 8.72926,-2.4696 q 0,0.69552 -0.26208,1.23984 -0.252,0.54432 -0.72576,0.91728 -0.47376,0.37296 -1.12895,0.56448 -0.6552,0.19152 -1.44144,0.19152 -0.48384,0 -0.92736,-0.0806 -0.43344,-0.0706 -0.78624,-0.18144 -0.34272,-0.12096 -0.58464,-0.24192 -0.24192,-0.13104 -0.3528,-0.23184 -0.11088,-0.1008 -0.16128,-0.28224 -0.0504,-0.18144 -0.0504,-0.49392 0,-0.19152 0.0202,-0.32256 0.0202,-0.13104 0.0504,-0.21168 0.0302,-0.0806 0.0806,-0.11088 0.0605,-0.0403 0.13104,-0.0403 0.11088,0 0.32256,0.14112 0.22176,0.13104 0.53424,0.29232 0.32256,0.16128 0.756,0.3024 0.43344,0.13104 0.99792,0.13104 0.42336,0 0.76608,-0.0907 0.34272,-0.0907 0.59472,-0.26208 0.252,-0.18144 0.38304,-0.4536 0.14112,-0.27216 0.14112,-0.64512 0,-0.38304 -0.2016,-0.64512 -0.19152,-0.26207 -0.51408,-0.46367 -0.32256,-0.2016 -0.72576,-0.3528 -0.4032,-0.16128 -0.83664,-0.33264 -0.42336,-0.17136 -0.83664,-0.38304 -0.4032,-0.22176 -0.72576,-0.53424 -0.32256,-0.31248 -0.52416,-0.74592 -0.19152,-0.43344 -0.19152,-1.03824 0,-0.53424 0.2016,-1.01808 0.21168,-0.49391 0.62496,-0.85679 0.41328,-0.37296 1.02816,-0.59472 0.62496,-0.22176 1.45152,-0.22176 0.36288,0 0.72576,0.0605 0.36288,0.0605 0.65519,0.1512 0.29232,0.0907 0.49392,0.2016 0.21168,0.1008 0.31248,0.18144 0.11088,0.0806 0.14112,0.14112 0.0403,0.0605 0.0504,0.14112 0.0202,0.0706 0.0302,0.18144 0.0202,0.11088 0.0202,0.27215 0,0.17136 -0.0202,0.3024 -0.0101,0.12096 -0.0504,0.2016 -0.0302,0.0806 -0.0806,0.12096 -0.0504,0.0302 -0.11088,0.0302 -0.0907,0 -0.26208,-0.11088 -0.17136,-0.11088 -0.44352,-0.23184 -0.27215,-0.13104 -0.64511,-0.24192 -0.36288,-0.11088 -0.83664,-0.11088 -0.42336,0 -0.74592,0.1008 -0.32256,0.0907 -0.53424,0.27216 -0.2016,0.17136 -0.31248,0.41328 -0.1008,0.24192 -0.1008,0.52416 0,0.39312 0.2016,0.66528 0.2016,0.26208 0.52416,0.46368 0.32256,0.2016 0.73584,0.36288 0.41328,0.16128 0.83664,0.33264 0.43344,0.17136 0.84671,0.38304 0.42336,0.21168 0.74592,0.51408 0.32256,0.3024 0.51408,0.72576 0.2016,0.42336 0.2016,1.00799 z m 4.04208,2.4696 q 0,0.0806 -0.0403,0.14112 -0.0403,0.0504 -0.13104,0.0907 -0.0907,0.0403 -0.252,0.0605 -0.16128,0.0202 -0.41328,0.0202 -0.24192,0 -0.4032,-0.0202 -0.16128,-0.0202 -0.26208,-0.0605 -0.0907,-0.0403 -0.13104,-0.0907 -0.0302,-0.0605 -0.0302,-0.14112 v -9.07198 q 0,-0.0706 0.0302,-0.13104 0.0403,-0.0605 0.13104,-0.1008 0.1008,-0.0403 0.26208,-0.0605 0.16128,-0.0202 0.4032,-0.0202 0.252,0 0.41328,0.0202 0.16128,0.0202 0.252,0.0605 0.0907,0.0403 0.13104,0.1008 0.0403,0.0605 0.0403,0.13104 z m 0.19152,-12.1363 q 0,0.58464 -0.22176,0.79632 -0.22176,0.21168 -0.81648,0.21168 -0.58464,0 -0.8064,-0.2016 -0.21168,-0.21168 -0.21168,-0.78624 0,-0.58464 0.22176,-0.79632 0.22176,-0.21168 0.81648,-0.21168 0.58464,0 0.79632,0.21168 0.22176,0.2016 0.22176,0.77616 z m 7.6003,11.47102 q 0,0.29232 -0.0403,0.46368 -0.0403,0.17136 -0.12096,0.252 -0.0806,0.0806 -0.24192,0.1512 -0.16128,0.0706 -0.37296,0.11088 -0.2016,0.0504 -0.43344,0.0806 -0.23184,0.0302 -0.46368,0.0302 -0.7056,0 -1.2096,-0.18144 -0.504,-0.19152 -0.82656,-0.56448 -0.32256,-0.38304 -0.47375,-0.9576 -0.14112,-0.58464 -0.14112,-1.37088 v -5.30207 h -1.27008 q -0.1512,0 -0.24192,-0.16128 -0.0907,-0.16128 -0.0907,-0.52415 0,-0.19152 0.0202,-0.32256 0.0302,-0.13104 0.0706,-0.21168 0.0403,-0.0907 0.1008,-0.12096 0.0706,-0.0403 0.1512,-0.0403 h 1.26 v -2.15712 q 0,-0.0706 0.0302,-0.13104 0.0403,-0.0605 0.13103,-0.1008 0.1008,-0.0504 0.26208,-0.0706 0.16128,-0.0202 0.4032,-0.0202 0.252,0 0.41328,0.0202 0.16128,0.0202 0.252,0.0706 0.0907,0.0403 0.13104,0.1008 0.0403,0.0605 0.0403,0.13104 v 2.15712 h 2.32848 q 0.0806,0 0.14112,0.0403 0.0605,0.0302 0.1008,0.12096 0.0504,0.0806 0.0706,0.21168 0.0202,0.13104 0.0202,0.32256 0,0.36287 -0.0907,0.52415 -0.0907,0.16128 -0.24192,0.16128 h -2.32848 v 5.06015 q 0,0.93744 0.27216,1.42128 0.28224,0.47376 0.99792,0.47376 0.23184,0 0.41328,-0.0403 0.18144,-0.0504 0.32256,-0.1008 0.14112,-0.0504 0.24192,-0.0907 0.1008,-0.0504 0.18144,-0.0504 0.0504,0 0.0907,0.0302 0.0504,0.0202 0.0706,0.0907 0.0302,0.0706 0.0504,0.19152 0.0202,0.12096 0.0202,0.3024 z m 6.33023,0.91728 -1.2096,3.33647 q -0.0605,0.16128 -0.31248,0.24192 -0.24192,0.0907 -0.74592,0.0907 -0.26208,0 -0.42336,-0.0302 -0.16128,-0.0202 -0.252,-0.0806 -0.0806,-0.0605 -0.0907,-0.16128 -0.0101,-0.1008 0.0504,-0.24192 l 1.24992,-3.15503 q -0.0907,-0.0403 -0.17136,-0.13104 -0.0806,-0.0907 -0.11088,-0.19152 l -3.23567,-8.66878 q -0.0806,-0.21168 -0.0806,-0.33264 0,-0.12096 0.0806,-0.19152 0.0806,-0.0706 0.26208,-0.0907 0.18143,-0.0302 0.48383,-0.0302 0.3024,0 0.47376,0.0202 0.17136,0.0101 0.27216,0.0504 0.1008,0.0403 0.14112,0.12096 0.0504,0.0706 0.1008,0.2016 l 2.59056,7.27774 h 0.0302 l 2.49983,-7.31806 q 0.0605,-0.19152 0.14112,-0.24192 0.0907,-0.0605 0.26208,-0.0806 0.17136,-0.0302 0.49392,-0.0302 0.28224,0 0.46368,0.0302 0.18144,0.0202 0.26208,0.0907 0.0907,0.0706 0.0907,0.19152 0,0.12096 -0.0605,0.3024 z m 17.07548,-3.65903 q 0,0.91727 -0.34272,1.63295 -0.33264,0.71568 -0.93743,1.21968 -0.59472,0.49392 -1.4112,0.74592 -0.8064,0.252 -1.74384,0.252 -0.6552,0 -1.21968,-0.11088 -0.5544,-0.11088 -0.99791,-0.27216 -0.43344,-0.16128 -0.73584,-0.33264 -0.29232,-0.17136 -0.41328,-0.29232 -0.11088,-0.12096 -0.17136,-0.3024 -0.0504,-0.19152 -0.0504,-0.504 0,-0.22176 0.0202,-0.36288 0.0202,-0.1512 0.0605,-0.24192 0.0403,-0.0907 0.1008,-0.12096 0.0605,-0.0403 0.14112,-0.0403 0.14112,0 0.39312,0.17136 0.26208,0.17136 0.66528,0.37296 0.40319,0.2016 0.96767,0.38304 0.57456,0.17136 1.32048,0.17136 0.56448,0 1.02816,-0.1512 0.47376,-0.1512 0.8064,-0.42336 0.34272,-0.28224 0.52416,-0.68544 0.18144,-0.4032 0.18144,-0.91727 0,-0.5544 -0.252,-0.94752 -0.252,-0.39312 -0.66528,-0.68544 -0.41328,-0.3024 -0.94752,-0.54432 -0.52416,-0.252 -1.07856,-0.504 -0.5544,-0.26208 -1.07856,-0.57456 -0.52415,-0.31248 -0.93743,-0.73584 -0.41328,-0.42336 -0.67536,-0.98784 -0.252,-0.57455 -0.252,-1.37087 0,-0.81648 0.29232,-1.45152 0.3024,-0.64512 0.82656,-1.07856 0.53423,-0.43344 1.25999,-0.6552 0.73584,-0.23184 1.58256,-0.23184 0.43344,0 0.86688,0.0806 0.44352,0.0706 0.82656,0.2016 0.39312,0.12096 0.69552,0.28224 0.3024,0.1512 0.39311,0.252 0.1008,0.0907 0.13104,0.1512 0.0302,0.0504 0.0504,0.14112 0.0202,0.0806 0.0302,0.2016 0.0101,0.12096 0.0101,0.31248 0,0.18144 -0.0202,0.32256 -0.0101,0.14112 -0.0403,0.24192 -0.0302,0.0907 -0.0907,0.14112 -0.0504,0.0403 -0.12096,0.0403 -0.11087,0 -0.35279,-0.14112 -0.23184,-0.14112 -0.57456,-0.31248 -0.34272,-0.18144 -0.81648,-0.32256 -0.46368,-0.1512 -1.04832,-0.1512 -0.54432,0 -0.94752,0.1512 -0.4032,0.14112 -0.66528,0.38304 -0.26208,0.24192 -0.39312,0.57456 -0.13104,0.33264 -0.13104,0.7056 0,0.54432 0.252,0.93744 0.252,0.39312 0.66528,0.69551 0.42336,0.3024 0.9576,0.5544 0.53424,0.252 1.08864,0.51408 0.5544,0.252 1.08864,0.56448 0.53424,0.3024 0.94751,0.72576 0.42336,0.41328 0.67536,0.98784 0.26208,0.56448 0.26208,1.34064 z m 8.8099,2.02607 q 0,0.17136 -0.0101,0.3024 -0.0101,0.12096 -0.0403,0.21168 -0.0202,0.0806 -0.0605,0.1512 -0.0302,0.0605 -0.16128,0.19152 -0.12095,0.12096 -0.42335,0.31248 -0.3024,0.18144 -0.68544,0.33264 -0.37296,0.14112 -0.81648,0.23184 -0.44352,0.0907 -0.91728,0.0907 -0.97776,0 -1.73376,-0.32256 -0.756,-0.32256 -1.27007,-0.93744 -0.504,-0.62496 -0.77616,-1.52208 -0.26208,-0.90719 -0.26208,-2.08655 0,-1.34064 0.32256,-2.29824 0.33264,-0.96768 0.89712,-1.58255 0.57455,-0.61488 1.34063,-0.9072 0.77616,-0.3024 1.67328,-0.3024 0.43344,0 0.83664,0.0806 0.41328,0.0806 0.756,0.21168 0.34272,0.13104 0.6048,0.3024 0.27216,0.17136 0.39311,0.29232 0.12096,0.12096 0.16128,0.19152 0.0504,0.0706 0.0806,0.17135 0.0302,0.0907 0.0403,0.21168 0.0101,0.12096 0.0101,0.3024 0,0.39312 -0.0907,0.5544 -0.0907,0.1512 -0.22176,0.1512 -0.15119,0 -0.35279,-0.16128 -0.19152,-0.17136 -0.49392,-0.37296 -0.3024,-0.2016 -0.73584,-0.36288 -0.42336,-0.17136 -1.008,-0.17136 -1.19952,0 -1.84464,0.92736 -0.63504,0.91728 -0.63504,2.6712 0,0.87696 0.16128,1.54223 0.17136,0.6552 0.49392,1.09872 0.32256,0.44352 0.78624,0.66528 0.47376,0.21168 1.07856,0.21168 0.57456,0 1.008,-0.18144 0.43344,-0.18144 0.74592,-0.39312 0.32256,-0.22176 0.53424,-0.39312 0.22176,-0.18144 0.34271,-0.18144 0.0706,0 0.12096,0.0403 0.0504,0.0403 0.0806,0.14112 0.0403,0.0907 0.0504,0.24192 0.0202,0.14112 0.0202,0.34272 z m 10.47311,-3.25583 q 0,1.1088 -0.29232,2.04623 -0.29232,0.92736 -0.87696,1.60272 -0.57456,0.67536 -1.45152,1.0584 -0.86688,0.37296 -2.01599,0.37296 -1.11888,0 -1.95552,-0.33264 -0.82656,-0.33264 -1.38096,-0.96768 -0.5544,-0.63504 -0.82656,-1.54224 -0.27215,-0.90719 -0.27215,-2.05631 0,-1.1088 0.28223,-2.03616 0.29232,-0.93744 0.86688,-1.6128 0.58464,-0.67535 1.45152,-1.04831 0.86688,-0.37296 2.02608,-0.37296 1.11887,0 1.94543,0.33264 0.83664,0.33264 1.39104,0.96767 0.5544,0.63504 0.82656,1.54224 0.28224,0.9072 0.28224,2.04624 z m -1.75392,0.11088 q 0,-0.73584 -0.14112,-1.39104 -0.13104,-0.6552 -0.44352,-1.14912 -0.31248,-0.49392 -0.84672,-0.77616 -0.53424,-0.29232 -1.33055,-0.29232 -0.73584,0 -1.27008,0.26208 -0.52416,0.26208 -0.86688,0.74592 -0.34272,0.47376 -0.51408,1.12896 -0.16128,0.6552 -0.16128,1.43136 0,0.74592 0.13104,1.40112 0.14112,0.65519 0.4536,1.14911 0.32256,0.48384 0.8568,0.77616 0.53424,0.28224 1.33056,0.28224 0.72576,0 1.25999,-0.26208 0.53424,-0.26208 0.87696,-0.73584 0.34272,-0.47376 0.504,-1.12895 0.16128,-0.6552 0.16128,-1.44144 z m 9.50542,-3.95135 q 0,0.22175 -0.0101,0.37295 -0.0101,0.1512 -0.0403,0.24192 -0.0302,0.0806 -0.0806,0.13104 -0.0403,0.0403 -0.12096,0.0403 -0.0806,0 -0.2016,-0.0403 -0.11088,-0.0504 -0.26208,-0.0907 -0.14112,-0.0504 -0.32256,-0.0907 -0.18144,-0.0403 -0.39312,-0.0403 -0.252,0 -0.49392,0.1008 -0.24192,0.1008 -0.51408,0.33264 -0.26208,0.23184 -0.5544,0.61488 -0.29231,0.38304 -0.64511,0.93744 v 5.96735 q 0,0.0806 -0.0403,0.14112 -0.0403,0.0504 -0.13104,0.0907 -0.0907,0.0403 -0.252,0.0605 -0.16128,0.0202 -0.41328,0.0202 -0.24192,0 -0.4032,-0.0202 -0.16128,-0.0202 -0.26208,-0.0605 -0.0907,-0.0403 -0.13104,-0.0907 -0.0302,-0.0605 -0.0302,-0.14112 v -9.07198 q 0,-0.0806 0.0302,-0.13104 0.0302,-0.0605 0.12096,-0.1008 0.0907,-0.0504 0.23184,-0.0605 0.14112,-0.0202 0.37296,-0.0202 0.22176,0 0.36288,0.0202 0.1512,0.0101 0.23184,0.0605 0.0806,0.0403 0.11088,0.1008 0.0403,0.0504 0.0403,0.13104 v 1.32047 q 0.37296,-0.54431 0.69552,-0.88703 0.33263,-0.34272 0.62495,-0.53424 0.29232,-0.2016 0.57456,-0.27216 0.29232,-0.0806 0.58464,-0.0806 0.13104,0 0.29232,0.0202 0.17136,0.0101 0.3528,0.0504 0.18144,0.0403 0.32256,0.0907 0.1512,0.0504 0.21168,0.1008 0.0605,0.0504 0.0806,0.1008 0.0202,0.0403 0.0302,0.11088 0.0202,0.0706 0.0202,0.21168 0.0101,0.13104 0.0101,0.36288 z m 9.3643,3.54815 q 0,0.39312 -0.2016,0.56448 -0.19152,0.16128 -0.44351,0.16128 h -5.94719 q 0,0.756 0.1512,1.36079 0.1512,0.6048 0.504,1.03824 0.35279,0.43344 0.91727,0.66528 0.56448,0.23184 1.38096,0.23184 0.64512,0 1.14912,-0.1008 0.504,-0.11088 0.86688,-0.24192 0.37296,-0.13104 0.6048,-0.23184 0.24192,-0.11088 0.36288,-0.11088 0.0706,0 0.12096,0.0403 0.0605,0.0302 0.0907,0.1008 0.0302,0.0706 0.0403,0.2016 0.0202,0.12096 0.0202,0.3024 0,0.13104 -0.0101,0.23184 -0.0101,0.0907 -0.0302,0.17136 -0.0101,0.0706 -0.0504,0.13104 -0.0302,0.0605 -0.0907,0.12096 -0.0504,0.0504 -0.32256,0.18144 -0.27216,0.12096 -0.7056,0.24192 -0.43344,0.12096 -1.008,0.21168 -0.56448,0.1008 -1.2096,0.1008 -1.11888,0 -1.96559,-0.31248 -0.83664,-0.31248 -1.4112,-0.92736 -0.57456,-0.61488 -0.86688,-1.54224 -0.29232,-0.92735 -0.29232,-2.15711 0,-1.16928 0.3024,-2.09664 0.3024,-0.93744 0.86688,-1.58256 0.57456,-0.65519 1.38096,-0.99791 0.80639,-0.3528 1.80431,-0.3528 1.06848,0 1.8144,0.34272 0.756,0.34272 1.23984,0.92735 0.48384,0.57456 0.70559,1.3608 0.23184,0.77616 0.23184,1.6632 z m -1.67327,-0.49392 q 0.0302,-1.3104 -0.58464,-2.05632 -0.6048,-0.74592 -1.80432,-0.74592 -0.61488,0 -1.07856,0.23184 -0.46368,0.23184 -0.77615,0.61488 -0.31248,0.38304 -0.48384,0.89712 -0.17136,0.504 -0.19152,1.0584 z"
         id="use2420"
         style="-inkscape-font-specification:'Calibri, Normal';stroke-width:4.91339;stroke-linecap:round;stroke-linejoin:round;stroke-dashoffset:10.8171"
         transform="matrix(0.18547429,0,0,0.18547429,-43.701587,1.086926)"
         aria-label="Density Score" /></g></g><style
     type="text/css"
     id="style12906">
	.st0{fill:#0082CA;}
	.st1{fill:#5C6670;}
</style><style
     type="text/css"
     id="style12906-8">
	.st0{fill:#0082CA;}
	.st1{fill:#5C6670;}
</style></svg>
